<?xml version="1.0" encoding="UTF-8"?>
<svg width="94px" height="94px" viewBox="0 0 94 94" version="1.1" xmlns="http://www.w3.org/2000/svg" xmlns:xlink="http://www.w3.org/1999/xlink">
    <!-- Generator: Sketch 61.2 (89653) - https://sketch.com -->
    <title>Group</title>
    <desc>Created with Sketch.</desc>
    <g id="Page-1" stroke="none" stroke-width="1" fill="none" fill-rule="evenodd">
        <g id="Group" fill-rule="nonzero">
            <path d="M47.0245235,17 C30.4575292,16.9864676 17.0157378,30.4045344 17,46.9715269 C16.9842898,63.5385195 30.4005864,76.9820777 46.9675766,77 C63.5345667,77.0178884 76.9798912,63.6033619 77,47.0363741 C77.0096273,39.077832 73.8565515,31.4415901 68.2347229,25.8083381 C62.6128943,20.1750861 54.9830687,17.0065159 47.0245235,17 L47.0245235,17 Z" id="Tracciato_1467-path" stroke="#FFFFFF" stroke-width="5"></path>
            <g id="raggi" fill="#FFFFFF">
                <path d="M35.0463127,13.6512471 C35.6637264,13.6512471 36.2558087,13.4057758 36.6921046,12.9689171 C37.1284006,12.5320584 37.373109,11.9396602 37.3723146,11.3222471 L37.3723146,11.3222471 L37.3723146,2.95024705 C37.3723146,1.66563272 36.330927,0.624247052 35.0463127,0.624247052 C33.7616984,0.624247052 32.7203108,1.66563272 32.7203108,2.95024705 L32.7203108,2.95024705 L32.7203108,11.3222471 C32.7195164,11.9396602 32.9642248,12.5320584 33.4005208,12.9689171 C33.8368167,13.4057758 34.428899,13.6512471 35.0463127,13.6512471 L35.0463127,13.6512471 Z" id="Tracciato_906" transform="translate(35.046313, 7.137747) rotate(-17.000000) translate(-35.046313, -7.137747) "></path>
                <path d="M68.177285,16.8038691 C68.7947126,16.8038691 69.3868082,16.5583923 69.823114,16.1215238 C70.2594197,15.6846552 70.5041337,15.0922437 70.5033393,14.4748167 L70.5033393,14.4748167 L70.5033393,6.10262828 C70.5033393,4.81798505 69.4619282,3.77657595 68.177285,3.77657595 C66.8926418,3.77657595 65.8512307,4.81798505 65.8512307,6.10262828 L65.8512307,6.10262828 L65.8512307,14.4748167 C65.8504363,15.0922437 66.0951503,15.6846552 66.531456,16.1215238 C66.9677618,16.5583923 67.5598574,16.8038691 68.177285,16.8038691 L68.177285,16.8038691 Z" id="Tracciato_1456" transform="translate(68.177285, 10.290222) rotate(25.975715) translate(-68.177285, -10.290222) "></path>
                <path d="M59.6423127,94.1002471 C60.2597264,94.1002471 60.8518087,93.8547758 61.2881046,93.4179171 C61.7244006,92.9810584 61.969109,92.3886602 61.9683146,91.7712471 L61.9683146,91.7712471 L61.9683146,83.3992471 C61.9683146,82.1146327 60.926927,81.0732471 59.6423127,81.0732471 C58.3576984,81.0732471 57.3163108,82.1146327 57.3163108,83.3992471 L57.3163108,83.3992471 L57.3163108,91.7712471 C57.3155164,92.3886602 57.5602248,92.9810584 57.9965208,93.4179171 C58.4328167,93.8547758 59.024899,94.1002471 59.6423127,94.1002471 L59.6423127,94.1002471 Z" id="Tracciato_1457" transform="translate(59.642313, 87.586747) rotate(-17.000000) translate(-59.642313, -87.586747) "></path>
                <path d="M26.562285,90.7608691 C27.1797126,90.7608691 27.7718082,90.5153923 28.208114,90.0785238 C28.6444197,89.6416552 28.8891337,89.0492437 28.8883393,88.4318167 L28.8883393,88.4318167 L28.8883393,80.0596283 C28.8883393,78.7749851 27.8469282,77.7335759 26.562285,77.7335759 C25.2776418,77.7335759 24.2362307,78.7749851 24.2362307,80.0596283 L24.2362307,80.0596283 L24.2362307,88.4318167 C24.2354363,89.0492437 24.4801503,89.6416552 24.916456,90.0785238 C25.3527618,90.5153923 25.9448574,90.7608691 26.562285,90.7608691 L26.562285,90.7608691 Z" id="Tracciato_1458" transform="translate(26.562285, 84.247222) rotate(25.975715) translate(-26.562285, -84.247222) "></path>
                <path d="M87.4842529,41.6058127 C88.1016666,41.6058127 88.6937489,41.3603414 89.1300449,40.9234828 C89.5663408,40.4866241 89.8110493,39.8942259 89.8102549,39.2768127 L89.8102549,39.2768127 L89.8102549,30.9048127 C89.8102549,29.6201984 88.7688673,28.5788127 87.4842529,28.5788127 C86.1996386,28.5788127 85.158251,29.6201984 85.158251,30.9048127 L85.158251,30.9048127 L85.158251,39.2768127 C85.1574566,39.8942259 85.402165,40.4866241 85.838461,40.9234828 C86.274757,41.3603414 86.8668393,41.6058127 87.4842529,41.6058127 L87.4842529,41.6058127 Z" id="Tracciato_1459" transform="translate(87.484253, 35.092313) rotate(73.000000) translate(-87.484253, -35.092313) "></path>
                <path d="M7.20625295,66.1468127 C7.82366664,66.1468127 8.41574893,65.9013414 8.85204489,65.4644828 C9.28834085,65.0276241 9.53304927,64.4352259 9.53225489,63.8178127 L9.53225489,63.8178127 L9.53225489,55.4458127 C9.53225489,54.1611984 8.49086728,53.1198127 7.20625295,53.1198127 C5.92163862,53.1198127 4.88025101,54.1611984 4.88025101,55.4458127 L4.88025101,55.4458127 L4.88025101,63.8178127 C4.87945663,64.4352259 5.12416505,65.0276241 5.56046101,65.4644828 C5.99675696,65.9013414 6.58883926,66.1468127 7.20625295,66.1468127 L7.20625295,66.1468127 Z" id="Tracciato_1460" transform="translate(7.206253, 59.633313) rotate(73.000000) translate(-7.206253, -59.633313) "></path>
                <path d="M9.6188359,34.9856059 C10.2362496,34.9856059 10.8283319,34.7401346 11.2646278,34.3032759 C11.7009238,33.8664172 11.9456322,33.274019 11.9448378,32.6566059 L11.9448378,32.6566059 L11.9448378,24.2846059 C11.9448378,22.9999915 10.9034502,21.9586059 9.6188359,21.9586059 C8.33422157,21.9586059 7.29283396,22.9999915 7.29283396,24.2846059 L7.29283396,24.2846059 L7.29283396,32.6566059 C7.29203958,33.274019 7.536748,33.8664172 7.97304395,34.3032759 C8.40933991,34.7401346 9.00142221,34.9856059 9.6188359,34.9856059 L9.6188359,34.9856059 Z" id="Tracciato_1461" transform="translate(9.618836, 28.472106) rotate(-62.000000) translate(-9.618836, -28.472106) "></path>
                <path d="M85.4058359,73.1246059 C86.0232496,73.1246059 86.6153319,72.8791346 87.0516278,72.4422759 C87.4879238,72.0054172 87.7326322,71.413019 87.7318378,70.7956059 L87.7318378,70.7956059 L87.7318378,62.4236059 C87.7318378,61.1389915 86.6904502,60.0976059 85.4058359,60.0976059 C84.1212216,60.0976059 83.079834,61.1389915 83.079834,62.4236059 L83.079834,62.4236059 L83.079834,70.7956059 C83.0790396,71.413019 83.323748,72.0054172 83.760044,72.4422759 C84.1963399,72.8791346 84.7884222,73.1246059 85.4058359,73.1246059 L85.4058359,73.1246059 Z" id="Tracciato_1462" transform="translate(85.405836, 66.611106) rotate(-62.000000) translate(-85.405836, -66.611106) "></path>
            </g>
        </g>
    </g>
</svg>