<svg id="Livello_2" data-name="Livello 2" xmlns="http://www.w3.org/2000/svg" width="100" height="100" viewBox="0 0 100 100">
  <rect id="Rettangolo_685" data-name="Rettangolo 685" width="100" height="100" fill="none"/>
  <path id="Tracciato_1350" data-name="Tracciato 1350" d="M50.29,36.873A32.46,32.46,0,0,1,52.4,25.34,32.713,32.713,0,1,0,94.537,67.493,32.727,32.727,0,0,1,50.29,36.873ZM87.623,74.347a30,30,0,1,1-39.48-43.9A35.467,35.467,0,0,0,83.07,72.313a36.193,36.193,0,0,0,6.347-.58,30.587,30.587,0,0,1-1.82,2.613Z" transform="translate(-10.403 -8.447)" fill="#fff"/>
  <path id="Tracciato_1350_-_Contorno" data-name="Tracciato 1350 - Contorno" d="M54.125,23.624l-.786,2.071A31.348,31.348,0,0,0,51.29,36.873,31.726,31.726,0,0,0,94.185,66.557l2.066-.777-.778,2.066a33.707,33.707,0,0,1-31.53,21.826,33.994,33.994,0,0,1-4.064-.245A33.711,33.711,0,0,1,52.051,24.4ZM83.019,70.588A33.727,33.727,0,0,1,49.29,36.874a33.324,33.324,0,0,1,1.451-9.76,31.711,31.711,0,0,0,9.379,60.328,31.983,31.983,0,0,0,3.824.231A31.72,31.72,0,0,0,92.766,69.149,33.583,33.583,0,0,1,83.019,70.588ZM49.533,28.412l-.406,2.215a34.466,34.466,0,0,0,33.9,40.686h.041a35.285,35.285,0,0,0,6.17-.564l2.217-.4-1.19,1.914q-.341.548-.706,1.085h.1l-1.251,1.613A31,31,0,1,1,47.618,29.6Zm33.494,44.9A36.464,36.464,0,0,1,46.816,32.542,29,29,0,1,0,86.126,74.61l.681-.877q.259-.333.509-.676a37.28,37.28,0,0,1-4.243.256Z" transform="translate(-10.403 -8.447)" fill="#fff"/>
</svg>
