<svg id="Livello_2" data-name="Livello 2" xmlns="http://www.w3.org/2000/svg" width="100" height="100" viewBox="0 0 100 100">
  <rect id="Rettangolo_682" data-name="Rettangolo 682" width="100" height="100" fill="none"/>
  <path id="Tracciato_1469" data-name="Tracciato 1469" d="M86.81,59.327a28.093,28.093,0,0,1-5.24,16.387c1.333,2.1,1.187,4.307.667,6.54A32.993,32.993,0,0,0,58.5,26.32h0a32.993,32.993,0,0,0-29.887,47,3.232,3.232,0,0,1,.187-.267,7.227,7.227,0,0,1,3.96-2,28.293,28.293,0,1,1,54-11.74Z" transform="translate(-8.503 -5.256)" fill="#fff"/>
  <path id="Tracciato_1454" data-name="Tracciato 1454" d="M61.786,74.78a19.727,19.727,0,0,0-14.453,6.273,10.553,10.553,0,0,0-18.527,6.92v.287a13.193,13.193,0,0,0,2.633,26.127H61.786a19.793,19.793,0,0,0,0-39.587ZM73.919,106.7a17.087,17.087,0,0,1-12.133,5.027H31.439a10.553,10.553,0,0,1-2.107-20.9l2.167-.44-.053-2.213v-.2a7.92,7.92,0,0,1,13.893-5.187L47.259,85l2-2.14a17.153,17.153,0,1,1,25.087,23.4c-.14.146-.274.293-.427.44Z" transform="translate(-6.08 -21.408)" fill="#fff"/>
  <path id="Tracciato_1454_-_Contorno" data-name="Tracciato 1454 - Contorno" d="M61.759,73.78h1.027v.042a20.793,20.793,0,0,1-1,41.563H31.412a14.193,14.193,0,0,1-3.595-27.924,11.553,11.553,0,0,1,19.526-7.847A20.728,20.728,0,0,1,61.759,73.78Zm.027,39.607a18.793,18.793,0,1,0,0-37.587h-.9a18.727,18.727,0,0,0-12.821,5.935l-.758.813-.729-.84a9.553,9.553,0,0,0-16.771,6.264v1.106l-.8.162a12.193,12.193,0,0,0,2.408,24.146H61.786Zm.021-36.98a18.148,18.148,0,0,1,13.271,30.536l-.009.01-.105.111c-.106.113-.216.229-.344.351a18.088,18.088,0,0,1-12.8,5.313H31.41a11.553,11.553,0,0,1-2.275-22.88l1.344-.273-.033-1.4v-.2A8.92,8.92,0,0,1,46.094,82.13l1.193,1.376,1.242-1.329a18.106,18.106,0,0,1,13.278-5.771Zm11.813,29.167A16.153,16.153,0,1,0,49.991,83.542l-2.759,2.952-2.648-3.052a6.92,6.92,0,0,0-12.138,4.533v.186l.073,3.039-2.988.607a9.553,9.553,0,0,0,1.879,18.92h30.4a16.087,16.087,0,0,0,11.4-4.733l.017-.017c.095-.091.185-.187.281-.288Z" transform="translate(-6.08 -21.408)" fill="#fff"/>
  <g id="raggi" transform="translate(-3.346 0.795)">
    <path id="Tracciato_906" data-name="Tracciato 906" d="M2.326,13.029A2.326,2.326,0,0,0,4.652,10.7h0V2.328A2.326,2.326,0,1,0,0,2.328H0V10.7A2.326,2.326,0,0,0,2.326,13.029Z" transform="translate(36.917 7.587) rotate(-17)" fill="#fff"/>
    <path id="Tracciato_1456" data-name="Tracciato 1456" d="M2.326,13.029A2.326,2.326,0,0,0,4.652,10.7h0V2.328A2.326,2.326,0,1,0,0,2.328H0V10.7A2.326,2.326,0,0,0,2.326,13.029Z" transform="matrix(0.899, 0.438, -0.438, 0.899, 74.94, 9.414)" fill="#fff"/>
    <path id="Tracciato_1459" data-name="Tracciato 1459" d="M2.326,13.029A2.326,2.326,0,0,0,4.652,10.7h0V2.328A2.326,2.326,0,1,0,0,2.328H0V10.7A2.326,2.326,0,0,0,2.326,13.029Z" transform="translate(99.035 36.963) rotate(73)" fill="#fff"/>
    <path id="Tracciato_1460" data-name="Tracciato 1460" d="M2.326,13.029A2.326,2.326,0,0,0,4.652,10.7h0V2.328A2.326,2.326,0,1,0,0,2.328H0V10.7A2.326,2.326,0,0,0,2.326,13.029Z" transform="translate(18.757 61.504) rotate(73)" fill="#fff"/>
    <path id="Tracciato_1461" data-name="Tracciato 1461" d="M2.326,13.029A2.326,2.326,0,0,0,4.652,10.7h0V2.328A2.326,2.326,0,1,0,0,2.328H0V10.7A2.326,2.326,0,0,0,2.326,13.029Z" transform="translate(8.774 33.467) rotate(-62)" fill="#fff"/>
    <path id="Tracciato_1462" data-name="Tracciato 1462" d="M2.326,13.029A2.326,2.326,0,0,0,4.652,10.7h0V2.328A2.326,2.326,0,1,0,0,2.328H0V10.7A2.326,2.326,0,0,0,2.326,13.029Z" transform="translate(84.561 71.606) rotate(-62)" fill="#fff"/>
  </g>
</svg>
