<svg id="Livello_2" data-name="Livello 2" xmlns="http://www.w3.org/2000/svg" width="100" height="100" viewBox="0 0 100 100">
  <rect id="Rettangolo_683" data-name="Rettangolo 683" width="100" height="100" fill="none"/>
  <path id="Tracciato_1470" data-name="Tracciato 1470" d="M86.27,49.107a10,10,0,0,1,5.02.253A33.013,33.013,0,0,0,59.51,25.32h0A33.007,33.007,0,0,0,27.963,67.947a12.207,12.207,0,0,1,4.333-2,28.286,28.286,0,1,1,54-16.86Z" transform="translate(-8.853 -4.589)" fill="#fff"/>
  <path id="Tracciato_1454" data-name="Tracciato 1454" d="M74.906,54.838A27.007,27.007,0,0,0,55.1,63.432,14.44,14.44,0,0,0,29.766,72.9q0,.18,0,.36a18.053,18.053,0,0,0,3.6,35.747H74.893a27.085,27.085,0,1,0,0-54.17Zm16.6,43.68a23.333,23.333,0,0,1-16.6,6.873H33.38a14.447,14.447,0,0,1-2.887-28.6l2.967-.6-.073-3.027V72.9a10.833,10.833,0,0,1,19.047-7.1l2.627,3.027L57.766,65.9a23.466,23.466,0,1,1,34.328,32C91.906,98.118,91.706,98.318,91.506,98.518Z" transform="translate(-5.109 -14.427)" fill="#fff"/>
  <path id="Tracciato_1454_-_Contorno" data-name="Tracciato 1454 - Contorno" d="M70.842,54.335h4.051A27.585,27.585,0,1,1,74.9,109.5H33.354a18.553,18.553,0,0,1-4.087-36.651A14.94,14.94,0,0,1,55.109,62.7a27.529,27.529,0,0,1,16.5-8.168Zm4.532,1h-.518a26.506,26.506,0,0,0-19.39,8.434l-.379.406-.364-.419A13.94,13.94,0,0,0,30.266,72.9v.768l-.4.081A17.553,17.553,0,0,0,33.354,108.5H74.9a26.585,26.585,0,0,0,.475-53.166Zm-.438,2.593a23.959,23.959,0,0,1,17.531,40.3c-.2.23-.406.437-.607.638a23.834,23.834,0,0,1-16.892,7.02H33.38A14.947,14.947,0,0,1,30.393,76.3l2.557-.517-.063-2.62V72.9a11.333,11.333,0,0,1,19.926-7.426l2.259,2.6L57.4,65.559a23.9,23.9,0,0,1,17.536-7.627Zm.032,46.96a22.834,22.834,0,0,0,16.184-6.726c.2-.2.388-.388.564-.592l.013-.015a22.966,22.966,0,1,0-33.6-31.32l-3.084,3.335-2.992-3.448A10.333,10.333,0,0,0,33.886,72.9v.262l.083,3.44-3.378.683a13.947,13.947,0,0,0,2.788,27.61Z" transform="translate(-5.109 -14.427)" fill="#fff"/>
  <g id="raggi" transform="translate(-3.767 0.825)">
    <path id="Tracciato_906" data-name="Tracciato 906" d="M2.326,13.029A2.326,2.326,0,0,0,4.652,10.7h0V2.328A2.326,2.326,0,1,0,0,2.328H0V10.7A2.326,2.326,0,0,0,2.326,13.029Z" transform="matrix(0.777, -0.629, 0.629, 0.777, 20.341, 17.494)" fill="#fff"/>
    <path id="Tracciato_1456" data-name="Tracciato 1456" d="M2.326,13.029A2.326,2.326,0,0,0,4.652,10.7h0V2.328A2.326,2.326,0,1,0,0,2.328H0V10.7A2.326,2.326,0,0,0,2.326,13.029Z" transform="matrix(0.996, 0.087, -0.087, 0.996, 56.426, 4.597)" fill="#fff"/>
    <path id="Tracciato_1459" data-name="Tracciato 1459" d="M2.326,13.029A2.326,2.326,0,0,0,4.652,10.7h0V2.328A2.326,2.326,0,1,0,0,2.328H0V10.7A2.326,2.326,0,0,0,2.326,13.029Z" transform="translate(90.585 21.091) rotate(56)" fill="#fff"/>
    <path id="Tracciato_1461" data-name="Tracciato 1461" d="M2.326,13.029A2.326,2.326,0,0,0,4.652,10.7h0V2.328A2.326,2.326,0,1,0,0,2.328H0V10.7A2.326,2.326,0,0,0,2.326,13.029Z" transform="matrix(0.105, -0.995, 0.995, 0.105, 6.896, 47.12)" fill="#fff"/>
  </g>
</svg>
