<svg xmlns="http://www.w3.org/2000/svg" width="100" height="100" viewBox="0 0 100 100">
  <g id="Livello_2" data-name="Livello 2" transform="translate(-1 -2)">
    <rect id="Rettangolo_688" data-name="Rettangolo 688" width="100" height="100" transform="translate(1 2)" fill="none"/>
    <path id="Tracciato_1454" data-name="Tracciato 1454" d="M73.086,52.588A27.033,27.033,0,0,0,53.3,61.182a14.44,14.44,0,0,0-25.333,9.46v.367a18.053,18.053,0,0,0,3.607,35.747H73.1a27.085,27.085,0,1,0,0-54.17Zm16.6,43.68a23.367,23.367,0,0,1-16.6,6.873H31.56a14.447,14.447,0,0,1-2.887-28.6l2.96-.6-.073-3.027v-.273a10.833,10.833,0,0,1,19.013-7.113l2.667,3.027,2.733-2.927a23.473,23.473,0,1,1,34.333,32C90.08,95.868,89.886,96.068,89.686,96.268Z" transform="translate(-5.843 -13.592)" fill="#fff"/>
    <path id="Tracciato_1454_-_Contorno" data-name="Tracciato 1454 - Contorno" d="M73.038,52.085H73.1a27.585,27.585,0,1,1,.006,55.17H31.553A18.553,18.553,0,0,1,27.467,70.6,14.94,14.94,0,0,1,53.309,60.446a27.533,27.533,0,0,1,19.716-8.358Zm.068,54.17a26.585,26.585,0,0,0,.055-53.17l-.013,0h-.08a26.532,26.532,0,0,0-19.4,8.434l-.379.406-.364-.419a13.94,13.94,0,0,0-24.456,9.132v.775l-.4.081a17.553,17.553,0,0,0,3.488,34.757H73.106Zm.409-51A23.974,23.974,0,0,1,90.667,95.975c-.237.251-.43.45-.627.647a23.868,23.868,0,0,1-16.906,7.02H31.56a14.947,14.947,0,0,1-2.987-29.59l2.55-.517-.063-2.62v-.273A11.333,11.333,0,0,1,50.951,63.2l2.3,2.61L55.6,63.292A23.993,23.993,0,0,1,73.515,55.252Zm-.38,47.39a22.868,22.868,0,0,0,16.2-6.726c.191-.191.379-.385.611-.63l.006-.006a22.973,22.973,0,1,0-33.6-31.318l-.008.009L53.229,67.3,50.2,63.859A10.333,10.333,0,0,0,32.06,70.641v.268l.083,3.44-3.371.683a13.947,13.947,0,0,0,2.788,27.61Z" transform="translate(-5.843 -13.592)" fill="#fff"/>
    <path id="Tracciato_1472" data-name="Tracciato 1472" d="M95.458,23.683a18.94,18.94,0,0,1,0-13.333,18.907,18.907,0,0,0-6.527,31.267c.667-.113,1.387-.187,2.08-.253A17.31,17.31,0,0,1,93,13.337,20.546,20.546,0,0,0,116.9,37.23a18.125,18.125,0,0,1-1.06,1.513,17.227,17.227,0,0,1-6.88,5.333c.6.28,1.193.58,1.773.9a18.933,18.933,0,0,0,9.127-10.193,18.953,18.953,0,0,1-24.407-11.1Z" transform="translate(-29.074 0.486)" fill="#fff"/>
    <path id="Tracciato_1472_-_Contorno" data-name="Tracciato 1472 - Contorno" d="M97.683,8.126l-1.008,2.681a17.656,17.656,0,0,0,22.733,22.759l2.685-1.007-1.012,2.683a20.189,20.189,0,0,1-9.753,10.893l-.614.313-.6-.333c-.54-.3-1.11-.587-1.7-.86l-2.636-1.23,2.674-1.143a15.968,15.968,0,0,0,5.617-4.035q-.419.017-.838.017h-.062a21.8,21.8,0,0,1-21.786-22.7,16.09,16.09,0,0,0-2.391,2.7,15.96,15.96,0,0,0,2.847,21.5l2.407,2-3.112.3c-.663.064-1.363.135-1.987.241l-.65.111-.473-.459A20.207,20.207,0,0,1,95,9.133Z" transform="translate(-29.074 0.486)" fill="#fff"/>
  </g>
</svg>
