<svg xmlns="http://www.w3.org/2000/svg" width="101.383" height="100.1" viewBox="0 0 101.383 100.1">
  <g id="Raggruppa_553" data-name="Raggruppa 553" transform="translate(-813.713 -720.945)">
    <path id="Tracciato_1363" data-name="Tracciato 1363" d="M40,58.626A20.673,20.673,0,0,1,13.374,32,20.665,20.665,0,1,0,40,58.626ZM3.635,51.339a16.909,16.909,0,0,1,3.093-9.788,17.254,17.254,0,0,1,1.687-2.044A24.279,24.279,0,0,0,32.493,63.584a17.372,17.372,0,0,1-2.044,1.687A17.027,17.027,0,0,1,3.635,51.339Z" transform="translate(875.096 688.945)" fill="#fff"/>
    <g id="rain_1" transform="translate(813.813 752.633)">
      <path id="Tracciato_834" data-name="Tracciato 834" d="M49.007,11.413a22.209,22.209,0,0,0-16.272,7.065,11.88,11.88,0,0,0-20.854,7.786q0,.148,0,.3A14.853,14.853,0,0,0,14.85,55.966H49.007a22.277,22.277,0,0,0,0-44.553ZM62.66,47.339a19.24,19.24,0,0,1-13.653,5.656H14.85a11.882,11.882,0,0,1-2.375-23.524l2.44-.495-.061-2.489c0-.079,0-.153,0-.224a8.911,8.911,0,0,1,15.642-5.839l2.161,2.489,2.25-2.407A19.306,19.306,0,1,1,62.66,47.339Z" transform="translate(0 -11.413)" fill="#fff" stroke="#fff" stroke-width="0.2"/>
      <path id="Tracciato_835" data-name="Tracciato 835" d="M86.387,354.882a1.484,1.484,0,1,0-2.655-1.327h0l-8.91,17.821h0a1.484,1.484,0,1,0,2.655,1.327h0l8.91-17.821h0Z" transform="translate(-64.269 -305.213)" fill="#fff" stroke="#fff" stroke-width="0.2"/>
      <path id="Tracciato_836" data-name="Tracciato 836" d="M150.387,354.882a1.484,1.484,0,1,0-2.655-1.327h0l-8.91,17.821h0a1.484,1.484,0,1,0,2.655,1.327h0l8.91-17.821h0Z" transform="translate(-119.359 -305.213)" fill="#fff" stroke="#fff" stroke-width="0.2"/>
      <path id="Tracciato_837" data-name="Tracciato 837" d="M214.388,354.882a1.485,1.485,0,1,0-2.656-1.327h0l-8.91,17.821h0a1.484,1.484,0,1,0,2.655,1.327h0l8.91-17.821Z" transform="translate(-174.448 -305.213)" fill="#fff" stroke="#fff" stroke-width="0.2"/>
      <path id="Tracciato_838" data-name="Tracciato 838" d="M277.061,352.733a1.486,1.486,0,0,0-1.329.822h0l-8.909,17.821h0a1.485,1.485,0,1,0,2.656,1.327h0l8.91-17.821h0a1.485,1.485,0,0,0-1.327-2.149Z" transform="translate(-229.538 -305.213)" fill="#fff" stroke="#fff" stroke-width="0.2"/>
    </g>
  </g>
</svg>
