<svg id="Livello_2" data-name="Livello 2" xmlns="http://www.w3.org/2000/svg" width="100" height="100" viewBox="0 0 100 100">
  <rect id="Rettangolo_687" data-name="Rettangolo 687" width="100" height="100" fill="none"/>
  <g id="Raggruppa_601" data-name="Raggruppa 601" transform="translate(0 -8.128)">
    <path id="Tracciato_1471" data-name="Tracciato 1471" d="M75.534,38.24a27.613,27.613,0,0,1,0-19.4,27.553,27.553,0,0,0-13.6,40.453c.667-.3,1.553-.513,2.213-.853a25.22,25.22,0,0,1,7.82-35.293,29.84,29.84,0,0,0,29.42,35.247,29.333,29.333,0,0,0,5.333-.487,25.533,25.533,0,0,1-6.953,7.38,25.053,25.053,0,0,1-10,4.173,10.992,10.992,0,0,1,.667,2.207A27.553,27.553,0,0,0,111,54.333,27.573,27.573,0,0,1,75.534,38.24Z" transform="translate(-20.014 -6.641)" fill="#fff"/>
    <path id="Tracciato_1471_-_Contorno" data-name="Tracciato 1471 - Contorno" d="M77.245,17.126l-.775,2.065A26.549,26.549,0,0,0,110.65,53.4l2.064-.773-.778,2.062A28.553,28.553,0,0,1,90.624,72.649l-.984.19-.188-.984a10.012,10.012,0,0,0-.606-2.006L88.361,68.7l1.23-.221a24.134,24.134,0,0,0,15.017-9.253,30.384,30.384,0,0,1-3.208.17h-.086A30.837,30.837,0,0,1,70.651,25.256a24.222,24.222,0,0,0-5.667,32.635l.61.929-.988.509a10.256,10.256,0,0,1-1.372.545c-.327.112-.636.218-.889.332l-.793.357-.463-.736A28.553,28.553,0,0,1,75.181,17.9Zm24.093,39.965A28.548,28.548,0,0,1,73.891,20.625,26.551,26.551,0,0,0,62.355,58.061l.23-.079.08-.028A26.221,26.221,0,0,1,71.442,22.3L73.36,21.11l-.409,2.217a28.84,28.84,0,0,0,28.362,34.066h.086a28.407,28.407,0,0,0,5.14-.47l2.224-.41-1.193,1.921A26.171,26.171,0,0,1,91.1,70.209q.042.138.081.277a26.55,26.55,0,0,0,18.035-14.51A28.377,28.377,0,0,1,101.338,57.091Z" transform="translate(-20.014 -6.641)" fill="#fff"/>
    <path id="Tracciato_1454" data-name="Tracciato 1454" d="M58.262,72.86a19.707,19.707,0,0,0-14.453,6.28,10.56,10.56,0,0,0-18.533,6.913v.267a13.193,13.193,0,0,0,2.667,26.127h30.32a19.793,19.793,0,1,0,0-39.587ZM70.4,104.78a17.087,17.087,0,0,1-12.133,5.027H27.916a10.56,10.56,0,0,1-2.113-20.9l2.167-.44-.053-2.18v-.2a7.92,7.92,0,0,1,13.9-5.187l1.92,2.213,2-2.14a17.153,17.153,0,1,1,25.087,23.4c-.14.113-.28.266-.427.406Z" transform="translate(-5.675 -24.646)" fill="#fff"/>
    <path id="Tracciato_1454_-_Contorno" data-name="Tracciato 1454 - Contorno" d="M58.234,71.86h.03a20.793,20.793,0,1,1,0,41.587H27.88a14.193,14.193,0,0,1-3.592-27.924,11.56,11.56,0,0,1,19.53-7.82A20.709,20.709,0,0,1,58.234,71.86Zm.029,39.587a18.793,18.793,0,1,0,0-37.587h-.029a18.706,18.706,0,0,0-13.693,5.961l-.758.814-.729-.84a9.56,9.56,0,0,0-16.778,6.259v1.084l-.8.162a12.193,12.193,0,0,0,2.407,24.146H58.262Zm.021-36.927a18.148,18.148,0,0,1,13.271,30.536l-.048.052-.055.044c-.052.042-.13.119-.2.194-.05.05-.1.1-.151.148a18.087,18.087,0,0,1-12.8,5.312H27.916A11.56,11.56,0,0,1,25.6,87.927l1.35-.274-.033-1.367v-.2a8.92,8.92,0,0,1,15.655-5.842l1.193,1.375,1.242-1.329A18.106,18.106,0,0,1,58.283,74.52Zm11.85,29.127A16.153,16.153,0,0,0,46.467,81.655l-2.759,2.952L41.06,81.555a6.92,6.92,0,0,0-12.145,4.532v.187l.074,3.005L26,89.887a9.56,9.56,0,0,0,1.917,18.92H58.292a16.087,16.087,0,0,0,11.4-4.733l.018-.018c.043-.041.085-.083.127-.125C69.922,103.841,70.023,103.741,70.133,103.647Z" transform="translate(-5.675 -24.646)" fill="#fff"/>
    <path id="Tracciato_1490" data-name="Tracciato 1490" d="M345.793,384.043c-.852,0-4.465,4.969-4.465,7.441a4.472,4.472,0,0,0,8.943,0C350.271,389.012,346.645,384.043,345.793,384.043Zm.007,8.93a1.492,1.492,0,0,1-1.491-1.48,7.768,7.768,0,0,1,1.14-2.563c.116-.194.231-.38.349-.555.113.175.231.362.349.555a7.73,7.73,0,0,1,1.144,2.563A1.492,1.492,0,0,1,345.8,392.973Z" transform="translate(-314.157 -291.898)" fill="#fff"/>
  </g>
</svg>
