<svg id="Livello_2" data-name="Livello 2" xmlns="http://www.w3.org/2000/svg" width="100" height="100" viewBox="0 0 100 100">
  <rect id="Rettangolo_682" data-name="Rettangolo 682" width="100" height="100" fill="none"/>
  <g id="Raggruppa_600" data-name="Raggruppa 600" transform="translate(2.983 -7.021)">
    <path id="Tracciato_1469" data-name="Tracciato 1469" d="M82.922,57.234a26.312,26.312,0,0,1-4.908,15.348c1.249,1.967,1.111,4.034.624,6.125A30.9,30.9,0,0,0,56.4,26.32h0A30.9,30.9,0,0,0,28.412,70.34a3.03,3.03,0,0,1,.175-.25A6.769,6.769,0,0,1,32.3,68.217a26.5,26.5,0,1,1,50.576-11Z" transform="translate(-9.393 -6.146)" fill="#fff"/>
    <path id="Tracciato_1454" data-name="Tracciato 1454" d="M59.024,74.78a18.476,18.476,0,0,0-13.537,5.876,9.884,9.884,0,0,0-17.352,6.481v.268a12.357,12.357,0,0,0,2.466,24.47H59.024a18.538,18.538,0,1,0,0-37.077Zm11.364,29.9a16,16,0,0,1-11.364,4.708H30.6a9.884,9.884,0,0,1-1.973-19.575l2.029-.412-.05-2.073v-.187A7.418,7.418,0,0,1,43.62,82.279l1.8,2.073,1.873-2a16.066,16.066,0,1,1,23.5,21.917c-.131.137-.256.275-.4.412Z" transform="translate(-6.662 -24.347)" fill="#fff"/>
    <path id="Tracciato_1454_-_Contorno" data-name="Tracciato 1454 - Contorno" d="M59,73.78h1.025v.042a19.538,19.538,0,0,1-1,39.052H30.575a13.357,13.357,0,0,1-3.428-26.266A10.884,10.884,0,0,1,45.5,79.221,19.478,19.478,0,0,1,59,73.78Zm.025,37.1a17.538,17.538,0,1,0,0-35.077h-.842a17.477,17.477,0,0,0-11.963,5.539l-.758.813-.729-.84a8.884,8.884,0,0,0-15.6,5.826v1.088l-.8.162a11.357,11.357,0,0,0,2.243,22.49H59.024Zm.019-34.636a17.061,17.061,0,0,1,12.476,28.706l-.009.01-.1.1c-.1.106-.2.216-.324.331a17,17,0,0,1-12.037,4.994H30.574a10.884,10.884,0,0,1-2.143-21.555l1.206-.245-.03-1.26v-.187a8.418,8.418,0,0,1,14.767-5.514l1.072,1.235,1.115-1.193A17.022,17.022,0,0,1,59.043,76.24Zm11.018,27.338A15.066,15.066,0,1,0,48.023,83.03l-2.632,2.816-2.526-2.912a6.418,6.418,0,0,0-11.257,4.2v.174l.07,2.9-2.85.579a8.884,8.884,0,0,0,1.747,17.6H59.051A15,15,0,0,0,69.68,103.97l.017-.017c.088-.084.172-.173.262-.268Z" transform="translate(-6.662 -24.347)" fill="#fff"/>
    <g id="raggi" transform="translate(2.951 7.021)">
      <path id="Tracciato_906" data-name="Tracciato 906" d="M2.179,12.2a2.178,2.178,0,0,0,2.179-2.179h0V2.18A2.179,2.179,0,1,0,0,2.18H0v7.843A2.179,2.179,0,0,0,2.179,12.2Z" transform="translate(28.679 1.274) rotate(-17)" fill="#fff"/>
      <path id="Tracciato_1456" data-name="Tracciato 1456" d="M2.179,12.2a2.178,2.178,0,0,0,2.179-2.179h0V2.18A2.179,2.179,0,1,0,0,2.18H0v7.843A2.179,2.179,0,0,0,2.179,12.2Z" transform="matrix(0.899, 0.438, -0.438, 0.899, 64.291, 2.985)" fill="#fff"/>
      <path id="Tracciato_1459" data-name="Tracciato 1459" d="M2.179,12.2a2.178,2.178,0,0,0,2.179-2.179h0V2.18A2.179,2.179,0,1,0,0,2.18H0v7.843A2.179,2.179,0,0,0,2.179,12.2Z" transform="translate(86.858 28.788) rotate(73)" fill="#fff"/>
      <path id="Tracciato_1460" data-name="Tracciato 1460" d="M2.179,12.2a2.178,2.178,0,0,0,2.179-2.179h0V2.18A2.179,2.179,0,1,0,0,2.18H0v7.843A2.179,2.179,0,0,0,2.179,12.2Z" transform="translate(11.67 51.773) rotate(73)" fill="#fff"/>
      <path id="Tracciato_1461" data-name="Tracciato 1461" d="M2.179,12.2a2.178,2.178,0,0,0,2.179-2.179h0V2.18A2.179,2.179,0,1,0,0,2.18H0v7.843A2.179,2.179,0,0,0,2.179,12.2Z" transform="translate(2.32 25.514) rotate(-62)" fill="#fff"/>
      <path id="Tracciato_1462" data-name="Tracciato 1462" d="M2.179,12.2a2.178,2.178,0,0,0,2.179-2.179h0V2.18A2.179,2.179,0,1,0,0,2.18H0v7.843A2.179,2.179,0,0,0,2.179,12.2Z" transform="translate(73.302 61.234) rotate(-62)" fill="#fff"/>
    </g>
    <g id="gocce" transform="translate(19.303 91.727)">
      <path id="Tracciato_1484" data-name="Tracciato 1484" d="M345.618,384.043c-.818,0-4.29,4.774-4.29,7.149a4.3,4.3,0,0,0,8.592,0C349.92,388.817,346.436,384.043,345.618,384.043Zm.006,8.58a1.434,1.434,0,0,1-1.433-1.422,7.464,7.464,0,0,1,1.095-2.463c.111-.187.222-.365.336-.533.109.168.222.348.336.533a7.428,7.428,0,0,1,1.1,2.463A1.434,1.434,0,0,1,345.624,392.623Z" transform="translate(-341.328 -383.108)" fill="#fff"/>
      <path id="Tracciato_1485" data-name="Tracciato 1485" d="M345.618,384.043c-.818,0-4.29,4.774-4.29,7.149a4.3,4.3,0,0,0,8.592,0C349.92,388.817,346.436,384.043,345.618,384.043Zm.006,8.58a1.434,1.434,0,0,1-1.433-1.422,7.464,7.464,0,0,1,1.095-2.463c.111-.187.222-.365.336-.533.109.168.222.348.336.533a7.428,7.428,0,0,1,1.1,2.463A1.434,1.434,0,0,1,345.624,392.623Z" transform="translate(-324.469 -380.194)" fill="#fff"/>
      <path id="Tracciato_1486" data-name="Tracciato 1486" d="M345.618,384.043c-.818,0-4.29,4.774-4.29,7.149a4.3,4.3,0,0,0,8.592,0C349.92,388.817,346.436,384.043,345.618,384.043Zm.006,8.58a1.434,1.434,0,0,1-1.433-1.422,7.464,7.464,0,0,1,1.095-2.463c.111-.187.222-.365.336-.533.109.168.222.348.336.533a7.428,7.428,0,0,1,1.1,2.463A1.434,1.434,0,0,1,345.624,392.623Z" transform="translate(-310.407 -384.043)" fill="#fff"/>
    </g>
  </g>
</svg>
