<svg xmlns="http://www.w3.org/2000/svg" width="100" height="96.632" viewBox="0 0 100 96.632">
  <g id="Raggruppa_530" data-name="Raggruppa 530" transform="translate(-634 -364.988)">
    <g id="Raggruppa_525" data-name="Raggruppa 525" transform="translate(685.058 364.988)">
      <g id="Raggruppa_523" data-name="Raggruppa 523" transform="translate(48.942) rotate(90)">
        <path id="Tracciato_1383" data-name="Tracciato 1383" d="M1.772,8.863A1.773,1.773,0,0,0,3.546,7.091V1.772A1.773,1.773,0,0,0,0,1.772V7.091A1.772,1.772,0,0,0,1.772,8.863Z" transform="translate(26.593 0)" fill="#fff"/>
        <path id="Tracciato_1384" data-name="Tracciato 1384" d="M.522,3.028,4.279,6.785a0,0,0,0,0,0,0A1.773,1.773,0,0,0,6.788,4.279h0L3.026.519h0A1.773,1.773,0,0,0,.519,3.026Z" transform="translate(7.788 7.786)" fill="#fff"/>
        <path id="Tracciato_1385" data-name="Tracciato 1385" d="M7.091,3.546A1.772,1.772,0,1,0,7.091,0H1.772a1.772,1.772,0,1,0,0,3.545H7.091Z" transform="translate(0 26.589)" fill="#fff"/>
        <path id="Tracciato_1386" data-name="Tracciato 1386" d="M6.788.519a1.774,1.774,0,0,0-2.507,0h0L.519,4.279h0A1.773,1.773,0,0,0,3.026,6.788v0l3.76-3.76h0A1.772,1.772,0,0,0,6.788.519Z" transform="translate(7.788 41.636)" fill="#fff"/>
        <path id="Tracciato_1387" data-name="Tracciato 1387" d="M3.026,6.787h0l3.76-3.76h0A1.772,1.772,0,1,0,4.281.519h0L.52,4.278h0A1.773,1.773,0,0,0,3.026,6.787Z" transform="translate(41.636 7.786)" fill="#fff"/>
      </g>
      <g id="Tracciato_1388" data-name="Tracciato 1388" transform="translate(3.179 10.222)" fill="none">
        <path d="M17.669,0a17.447,17.447,0,0,1,9.216,32.259c-2.5,1.612-4.561-3.82-7.784-5.224-4.67-2.82-5.313-1.921-7.76-2.623-.524-.146-.62-1.217-2.957-5.516,1.905,3.661.6.784-1.912-2.584C4.766,13.672.693,12.833,1.647,10.534A17.358,17.358,0,0,1,17.669,0Z" stroke="none"/>
        <path d="M 17.66884231567383 3.000003814697266 C 14.76077079772949 3.000003814697266 11.95273208618164 3.855754852294922 9.54829216003418 5.474735260009766 C 7.487682342529297 6.862199783325195 5.859930038452148 8.705902099609375 4.797691345214844 10.84647369384766 C 5.010133743286133 11.00589179992676 5.246355056762695 11.17401695251465 5.436611175537109 11.30943489074707 C 6.548355102539062 12.10071182250977 7.926517486572266 13.08154487609863 8.931148529052734 14.59171867370605 C 9.734626770019531 15.67536926269531 10.4202766418457 16.70788192749023 10.92858123779297 17.51070404052734 L 11.01879119873047 17.46271514892578 C 11.29866600036621 17.97748565673828 11.56781196594238 18.48516082763672 11.81903076171875 18.97217178344727 C 11.85046577453613 19.02976036071777 11.87362861633301 19.07179069519043 11.88891410827637 19.09934616088867 C 11.94749069213867 19.20382881164551 11.99841499328613 19.30714797973633 12.04261207580566 19.4094352722168 C 12.55612945556641 20.42276763916016 12.91315650939941 21.19150161743164 13.16071319580078 21.72664070129395 C 13.28814506530762 21.74332427978516 13.41924095153809 21.75860023498535 13.55848121643066 21.77482414245605 C 15.38193702697754 21.98731231689453 17.05700874328613 22.31606292724609 20.50032043457031 24.37562370300293 C 22.33786773681641 25.24208450317383 23.73246574401855 26.80486106872559 24.86081123352051 28.06925392150879 C 25.18404388427734 28.43146324157715 25.61413192749023 28.91339874267578 25.96436309814453 29.25608825683594 C 27.74825286865234 27.96537208557129 29.22919845581055 26.32377433776855 30.27659225463867 24.4683952331543 C 31.49552154541016 22.30914306640625 32.11357116699219 19.9460334777832 32.11357116699219 17.44472503662109 C 32.11357116699219 13.58639526367188 30.61106109619141 9.959003448486328 27.8828125 7.230764389038086 C 25.15456199645996 4.502513885498047 21.52717208862305 3.000003814697266 17.66884231567383 3.000003814697266 M 17.66884231567383 3.814697265625e-06 C 27.30330276489258 3.814697265625e-06 35.11357116699219 7.810264587402344 35.11357116699219 17.44472503662109 C 35.11357116699219 23.60114479064941 31.92447090148926 29.01270484924316 26.88478088378906 32.2591552734375 C 24.38718795776367 33.87160491943359 22.3233699798584 28.43908309936523 19.10089111328125 27.0346736907959 C 14.43103218078613 24.21515464782715 13.78831100463867 25.11345481872559 11.34054183959961 24.41197395324707 C 10.88696098327637 24.28518676757812 10.75429344177246 23.46533393859863 9.207235336303711 20.45314979553223 C 9.235231399536133 20.50161552429199 9.256471633911133 20.53885269165039 9.270694732666016 20.56391906738281 C 9.299417495727539 20.61559677124023 9.298578262329102 20.61305618286133 9.270694732666016 20.56391906738281 C 9.250894546508789 20.52829360961914 9.217079162597656 20.46703720092773 9.168416976928711 20.37768363952637 C 8.938922882080078 19.93222236633301 8.679069519042969 19.43996810913086 8.383152008056641 18.89568328857422 C 8.774938583374023 19.64858055114746 9.030879974365234 20.12514114379883 9.168416976928711 20.37768363952637 C 9.181364059448242 20.40281295776367 9.194482803344727 20.42831802368164 9.207235336303711 20.45314979553223 C 8.914039611816406 19.94558334350586 7.882633209228516 18.20624923706055 6.471292495727539 16.31121444702148 C 4.766252517700195 13.67190361022949 0.69293212890625 12.83334350585938 1.646530151367188 10.5339241027832 C 4.160652160644531 4.452043533325195 10.39483070373535 3.814697265625e-06 17.66884231567383 3.814697265625e-06 Z" stroke="none" fill="#fff"/>
      </g>
    </g>
    <path id="cloudy" d="M67.557,98.991a21.5,21.5,0,0,0-35.971-7.509A11.464,11.464,0,0,0,11.462,99c0,.095,0,.191,0,.286a14.332,14.332,0,0,0,2.862,28.375h1.987a14.329,14.329,0,0,0,14.325,13.961H63.6a21.5,21.5,0,0,0,3.958-42.626ZM3.544,113.326a10.788,10.788,0,0,1,8.626-10.571l2.914-.591-.073-2.971c0-.066,0-.132,0-.2a7.918,7.918,0,0,1,13.9-5.189l2.58,2.971L34.175,93.9a17.949,17.949,0,1,1,13.113,30.2H14.328A10.8,10.8,0,0,1,3.544,113.326Zm72.746,19.487A17.822,17.822,0,0,1,63.6,138.07H30.639a10.8,10.8,0,0,1-10.777-10.414H47.288a21.517,21.517,0,0,0,21.243-24.8,17.957,17.957,0,0,1,7.76,29.958Z" transform="translate(634.002 297.353)" fill="#fff"/>
    <g id="Raggruppa_532" data-name="Raggruppa 532" transform="translate(650 385.703)">
      <path id="Tracciato_835" data-name="Tracciato 835" d="M85.734,354.763a1.4,1.4,0,1,0-2.507-1.253h0l-8.414,16.827h0a1.4,1.4,0,1,0,2.507,1.253h0l8.414-16.827h0Z" transform="translate(-64.848 -296.449)" fill="#fff"/>
      <path id="Tracciato_836" data-name="Tracciato 836" d="M149.734,354.763a1.4,1.4,0,1,0-2.507-1.253h0l-8.414,16.827h0a1.4,1.4,0,1,0,2.507,1.253h0l8.414-16.827h0Z" transform="translate(-120.435 -296.449)" fill="#fff"/>
      <path id="Tracciato_837" data-name="Tracciato 837" d="M213.735,354.763a1.4,1.4,0,1,0-2.508-1.253h0l-8.414,16.827h0a1.4,1.4,0,1,0,2.507,1.253h0l8.414-16.827Z" transform="translate(-176.021 -296.449)" fill="#fff"/>
      <path id="Tracciato_838" data-name="Tracciato 838" d="M276.482,352.733a1.4,1.4,0,0,0-1.255.776h0l-8.413,16.827h0a1.4,1.4,0,1,0,2.508,1.253h0l8.414-16.827h0a1.4,1.4,0,0,0-1.253-2.029Z" transform="translate(-231.607 -296.449)" fill="#fff"/>
    </g>
  </g>
</svg>
