<svg xmlns="http://www.w3.org/2000/svg" width="100" height="100" viewBox="0 0 100 100">
  <g id="Livello_2" data-name="Livello 2" transform="translate(-1 -2)">
    <rect id="Rettangolo_688" data-name="Rettangolo 688" width="100" height="100" transform="translate(1 2)" fill="none"/>
    <g id="Raggruppa_606" data-name="Raggruppa 606" transform="translate(2.538 -5.525)">
      <path id="Tracciato_1454" data-name="Tracciato 1454" d="M69.6,52.588a25.451,25.451,0,0,0-18.628,8.09,13.595,13.595,0,0,0-23.85,8.906v.345a17,17,0,0,0,3.4,33.654h39.1a25.5,25.5,0,1,0,0-51ZM85.226,93.711A22,22,0,0,1,69.6,100.182H30.5a13.6,13.6,0,0,1-2.718-26.926l2.787-.565L30.5,69.842v-.257a10.2,10.2,0,0,1,17.9-6.7l2.511,2.849,2.573-2.755A22.1,22.1,0,1,1,85.81,93.108C85.6,93.334,85.414,93.523,85.226,93.711Z" transform="translate(-5.843 -15.24)" fill="#fff"/>
      <path id="Tracciato_1454_-_Contorno" data-name="Tracciato 1454 - Contorno" d="M69.549,52.085h.062a26,26,0,1,1,.006,52H30.5A17.5,17.5,0,0,1,26.62,69.526a14.094,14.094,0,0,1,24.359-9.582,25.95,25.95,0,0,1,18.557-7.855Zm.067,51a25,25,0,0,0,.056-50l-.012,0H69.58a24.949,24.949,0,0,0-18.245,7.931l-.379.406-.364-.419a13.095,13.095,0,0,0-22.973,8.579v.753l-.4.081A16.5,16.5,0,0,0,30.5,103.084h39.12ZM70,55.066A22.6,22.6,0,0,1,86.171,93.455c-.223.236-.406.425-.591.61a22.5,22.5,0,0,1-15.937,6.617H30.5a14.1,14.1,0,0,1-2.818-27.915l2.377-.482L30,69.842v-.257A10.7,10.7,0,0,1,48.78,62.56l2.144,2.433,2.193-2.348A22.617,22.617,0,0,1,70,55.066Zm-.358,44.616a21.5,21.5,0,0,0,15.229-6.324c.18-.18.357-.362.574-.593l.006-.006A21.6,21.6,0,1,0,53.86,63.314l-.008.009L50.9,66.481l-2.875-3.263A9.7,9.7,0,0,0,31,69.584v.252l.079,3.263-3.2.648A13.1,13.1,0,0,0,30.5,99.682Z" transform="translate(-5.843 -15.24)" fill="#fff"/>
      <path id="Tracciato_1472" data-name="Tracciato 1472" d="M94.74,22.9a17.831,17.831,0,0,1,0-12.553A17.8,17.8,0,0,0,88.6,39.786c.628-.107,1.305-.176,1.958-.238A16.3,16.3,0,0,1,92.43,13.162a19.343,19.343,0,0,0,22.5,22.495,17.065,17.065,0,0,1-1,1.425,16.218,16.218,0,0,1-6.477,5.021c.565.264,1.123.546,1.67.847a17.825,17.825,0,0,0,8.592-9.6A17.844,17.844,0,0,1,94.74,22.9Z" transform="translate(-31.794 0.486)" fill="#fff"/>
      <path id="Tracciato_1472_-_Contorno" data-name="Tracciato 1472 - Contorno" d="M96.965,8.126l-1.008,2.681a16.546,16.546,0,0,0,21.3,21.328l2.685-1.007-1.012,2.683a19.083,19.083,0,0,1-9.219,10.3l-.614.313-.6-.333c-.507-.279-1.042-.551-1.591-.808l-2.636-1.23,2.674-1.143a14.955,14.955,0,0,0,5.141-3.646q-.306.009-.612.01h-.058A20.6,20.6,0,0,1,90.823,16.006a15.082,15.082,0,0,0-2.107,2.405,14.95,14.95,0,0,0,2.667,20.136l2.407,2-3.112.3c-.623.06-1.28.127-1.865.226l-.65.111-.473-.459A19.1,19.1,0,0,1,94.283,9.133Z" transform="translate(-31.794 0.486)" fill="#fff"/>
      <path id="Tracciato_1484" data-name="Tracciato 1484" d="M345.562,384.043c-.808,0-4.234,4.713-4.234,7.057a4.241,4.241,0,0,0,8.481,0C349.809,388.756,346.37,384.043,345.562,384.043Zm.006,8.469a1.415,1.415,0,0,1-1.414-1.4,7.369,7.369,0,0,1,1.081-2.431c.11-.184.22-.36.331-.526.108.166.219.344.331.526a7.332,7.332,0,0,1,1.085,2.431A1.415,1.415,0,0,1,345.569,392.512Z" transform="translate(-309.582 -291.127)" fill="#fff"/>
    </g>
  </g>
</svg>
