<svg id="Livello_2" data-name="Livello 2" xmlns="http://www.w3.org/2000/svg" width="100" height="100" viewBox="0 0 100 100">
  <rect id="Rettangolo_683" data-name="Rettangolo 683" width="100" height="100" fill="none"/>
  <g id="Raggruppa_605" data-name="Raggruppa 605" transform="translate(4.174 -4.054)">
    <path id="Tracciato_1470" data-name="Tracciato 1470" d="M80.95,46.988a9.109,9.109,0,0,1,4.573.231,30.073,30.073,0,0,0-28.95-21.9h0A30.067,30.067,0,0,0,27.836,64.151a11.12,11.12,0,0,1,3.947-1.822A25.767,25.767,0,1,1,80.975,46.97Z" transform="translate(-10.148 -5.952)" fill="#fff"/>
    <path id="Tracciato_1454" data-name="Tracciato 1454" d="M69.6,54.838a24.6,24.6,0,0,0-18.043,7.828A13.154,13.154,0,0,0,28.478,71.29q0,.164,0,.328a16.446,16.446,0,0,0,3.279,32.563H69.586a24.673,24.673,0,1,0,0-49.346ZM84.72,94.628A21.255,21.255,0,0,1,69.6,100.889H31.77a13.16,13.16,0,0,1-2.63-26.053l2.7-.547-.067-2.757V71.29a9.869,9.869,0,0,1,17.351-6.468l2.393,2.757,2.466-2.666A21.376,21.376,0,1,1,85.256,94.065C85.084,94.264,84.9,94.446,84.72,94.628Z" transform="translate(-5.738 -17.542)" fill="#fff"/>
    <path id="Tracciato_1454_-_Contorno" data-name="Tracciato 1454 - Contorno" d="M65.532,54.335h4.054a25.173,25.173,0,1,1,.006,50.346H31.746a16.946,16.946,0,0,1-3.767-33.467,13.654,13.654,0,0,1,23.586-9.282A25.126,25.126,0,0,1,66.352,54.54Zm4.492,1h-.471a24.1,24.1,0,0,0-17.631,7.669l-.379.406-.364-.419a12.654,12.654,0,0,0-22.2,8.3v.736l-.4.081a15.946,15.946,0,0,0,3.168,31.573H69.592a24.173,24.173,0,0,0,.432-48.342Zm-.4,2.273a21.87,21.87,0,0,1,16,36.787c-.182.21-.371.4-.554.583a21.757,21.757,0,0,1-15.419,6.408H31.77a13.66,13.66,0,0,1-2.73-27.043l2.293-.464-.057-2.35V71.29A10.368,10.368,0,0,1,49.505,64.5l2.026,2.334,2.087-2.256a21.816,21.816,0,0,1,16.007-6.962Zm.03,42.778a20.757,20.757,0,0,0,14.711-6.114c.182-.182.352-.352.512-.537l.013-.015a20.876,20.876,0,1,0-30.54-28.47l-2.843,3.074L48.749,65.15a9.369,9.369,0,0,0-16.473,6.138v.238l.077,3.17-3.113.63a12.66,12.66,0,0,0,2.531,25.063Z" transform="translate(-5.738 -17.542)" fill="#fff"/>
    <g id="raggi" transform="translate(3.13 5.422)">
      <path id="Tracciato_906" data-name="Tracciato 906" d="M2.119,11.869A2.119,2.119,0,0,0,4.238,9.75h0V2.12A2.119,2.119,0,1,0,0,2.12H0V9.749A2.119,2.119,0,0,0,2.119,11.869Z" transform="matrix(0.777, -0.629, 0.629, 0.777, 12.247, 11.749)" fill="#fff"/>
      <path id="Tracciato_1456" data-name="Tracciato 1456" d="M2.119,11.869A2.119,2.119,0,0,0,4.238,9.75h0V2.12A2.119,2.119,0,1,0,0,2.12H0V9.749A2.119,2.119,0,0,0,2.119,11.869Z" transform="matrix(0.996, 0.087, -0.087, 0.996, 45.119, 0)" fill="#fff"/>
      <path id="Tracciato_1459" data-name="Tracciato 1459" d="M2.119,11.869A2.119,2.119,0,0,0,4.238,9.75h0V2.12A2.119,2.119,0,1,0,0,2.12H0V9.749A2.119,2.119,0,0,0,2.119,11.869Z" transform="translate(76.236 15.026) rotate(56)" fill="#fff"/>
      <path id="Tracciato_1461" data-name="Tracciato 1461" d="M2.119,11.869A2.119,2.119,0,0,0,4.238,9.75h0V2.12A2.119,2.119,0,1,0,0,2.12H0V9.749A2.119,2.119,0,0,0,2.119,11.869Z" transform="matrix(0.105, -0.995, 0.995, 0.105, 0, 38.737)" fill="#fff"/>
    </g>
    <path id="Tracciato_1495" data-name="Tracciato 1495" d="M345.493,384.043c-.794,0-4.165,4.635-4.165,6.941a4.171,4.171,0,0,0,8.342,0C349.67,388.678,346.287,384.043,345.493,384.043Zm.006,8.33a1.392,1.392,0,0,1-1.391-1.381,7.246,7.246,0,0,1,1.063-2.391c.108-.181.216-.354.326-.517.106.163.216.338.326.517a7.211,7.211,0,0,1,1.067,2.391A1.392,1.392,0,0,1,345.5,392.373Z" transform="translate(-309.173 -292.47)" fill="#fff"/>
    <path id="Tracciato_1496" data-name="Tracciato 1496" d="M345.493,384.043c-.794,0-4.165,4.635-4.165,6.941a4.171,4.171,0,0,0,8.342,0C349.67,388.678,346.287,384.043,345.493,384.043Zm.006,8.33a1.392,1.392,0,0,1-1.391-1.381,7.246,7.246,0,0,1,1.063-2.391c.108-.181.216-.354.326-.517.106.163.216.338.326.517a7.211,7.211,0,0,1,1.067,2.391A1.392,1.392,0,0,1,345.5,392.373Z" transform="translate(-291.173 -292.47)" fill="#fff"/>
  </g>
</svg>
