<svg xmlns="http://www.w3.org/2000/svg" width="105.096" height="104.999" viewBox="0 0 105.096 104.999">
  <g id="Raggruppa_535" data-name="Raggruppa 535" transform="translate(-810 -720.945)">
    <path id="cloudy" d="M67.557,98.991a21.5,21.5,0,0,0-35.971-7.509A11.464,11.464,0,0,0,11.462,99c0,.095,0,.191,0,.286a14.332,14.332,0,0,0,2.862,28.375h1.987a14.329,14.329,0,0,0,14.325,13.961H63.6a21.5,21.5,0,0,0,3.958-42.626ZM3.544,113.326a10.788,10.788,0,0,1,8.626-10.571l2.914-.591-.073-2.971c0-.066,0-.132,0-.2a7.918,7.918,0,0,1,13.9-5.189l2.58,2.971L34.175,93.9a17.949,17.949,0,1,1,13.113,30.2H14.328A10.8,10.8,0,0,1,3.544,113.326Zm72.746,19.487A17.822,17.822,0,0,1,63.6,138.07H30.639a10.8,10.8,0,0,1-10.777-10.414H47.288a21.517,21.517,0,0,0,21.243-24.8,17.957,17.957,0,0,1,7.76,29.958Z" transform="translate(810.002 662.086)" fill="#fff"/>
    <path id="Tracciato_1363" data-name="Tracciato 1363" d="M40,58.626A20.673,20.673,0,0,1,13.374,32,20.665,20.665,0,1,0,40,58.626ZM3.635,51.339a16.909,16.909,0,0,1,3.093-9.788,17.254,17.254,0,0,1,1.687-2.044A24.279,24.279,0,0,0,32.493,63.584a17.372,17.372,0,0,1-2.044,1.687A17.027,17.027,0,0,1,3.635,51.339Z" transform="translate(875.096 688.945)" fill="#fff"/>
    <g id="Raggruppa_536" data-name="Raggruppa 536" transform="translate(826.503 750.027)">
      <path id="Tracciato_835" data-name="Tracciato 835" d="M85.734,354.763a1.4,1.4,0,1,0-2.507-1.253h0l-8.414,16.827h0a1.4,1.4,0,1,0,2.507,1.253h0l8.414-16.827h0Z" transform="translate(-64.848 -296.449)" fill="#fff"/>
      <path id="Tracciato_836" data-name="Tracciato 836" d="M149.734,354.763a1.4,1.4,0,1,0-2.507-1.253h0l-8.414,16.827h0a1.4,1.4,0,1,0,2.507,1.253h0l8.414-16.827h0Z" transform="translate(-120.435 -296.449)" fill="#fff"/>
      <path id="Tracciato_837" data-name="Tracciato 837" d="M213.735,354.763a1.4,1.4,0,1,0-2.508-1.253h0l-8.414,16.827h0a1.4,1.4,0,1,0,2.507,1.253h0l8.414-16.827Z" transform="translate(-176.021 -296.449)" fill="#fff"/>
      <path id="Tracciato_838" data-name="Tracciato 838" d="M276.482,352.733a1.4,1.4,0,0,0-1.255.776h0l-8.413,16.827h0a1.4,1.4,0,1,0,2.508,1.253h0l8.414-16.827h0a1.4,1.4,0,0,0-1.253-2.029Z" transform="translate(-231.607 -296.449)" fill="#fff"/>
    </g>
  </g>
</svg>
