<svg xmlns="http://www.w3.org/2000/svg" width="100" height="95.833" viewBox="0 0 100 95.833">
  <g id="rain_1" transform="translate(0 -11.413)">
    <path id="Tracciato_834" data-name="Tracciato 834" d="M68.75,11.413a31.156,31.156,0,0,0-22.827,9.911A16.666,16.666,0,0,0,16.667,32.246q0,.208,0,.417a20.836,20.836,0,0,0,4.161,41.252H68.75a31.251,31.251,0,0,0,0-62.5ZM87.9,61.811A26.991,26.991,0,0,1,68.75,69.746H20.833a16.669,16.669,0,0,1-3.332-33l3.422-.694-.086-3.491c0-.111,0-.215,0-.314a12.5,12.5,0,0,1,21.944-8.191l3.032,3.491,3.157-3.377A27.083,27.083,0,1,1,87.9,61.811Z" fill="#fff"/>
    <path id="Tracciato_835" data-name="Tracciato 835" d="M91.11,355.748a2.082,2.082,0,1,0-3.725-1.862h0l-12.5,25h0a2.082,2.082,0,1,0,3.725,1.862h0l12.5-25h0Z" transform="translate(-60.081 -274.656)" fill="#fff"/>
    <path id="Tracciato_836" data-name="Tracciato 836" d="M155.11,355.748a2.082,2.082,0,1,0-3.725-1.862h0l-12.5,25h0a2.082,2.082,0,1,0,3.725,1.862h0l12.5-25h0Z" transform="translate(-111.581 -274.656)" fill="#fff"/>
    <path id="Tracciato_837" data-name="Tracciato 837" d="M219.111,355.748a2.083,2.083,0,1,0-3.726-1.862h0l-12.5,25h0a2.082,2.082,0,1,0,3.725,1.862h0l12.5-25Z" transform="translate(-163.081 -274.656)" fill="#fff"/>
    <path id="Tracciato_838" data-name="Tracciato 838" d="M281.25,352.733a2.086,2.086,0,0,0-1.865,1.154h0l-12.5,25h0a2.083,2.083,0,1,0,3.726,1.862h0l12.5-25h0a2.084,2.084,0,0,0-1.862-3.015Z" transform="translate(-214.581 -274.656)" fill="#fff"/>
  </g>
</svg>
