<svg id="Livello_2" data-name="Livello 2" xmlns="http://www.w3.org/2000/svg" width="100" height="100" viewBox="0 0 100 100">
  <rect id="Rettangolo_684" data-name="Rettangolo 684" width="100" height="100" fill="none"/>
  <g id="Raggruppa_607" data-name="Raggruppa 607" transform="translate(0 -10.622)">
    <path id="Tracciato_1454" data-name="Tracciato 1454" d="M69.906,31.838A27.007,27.007,0,0,0,50.1,40.432,14.44,14.44,0,0,0,24.766,49.9q0,.18,0,.36A18.053,18.053,0,0,0,28.366,86h41.54a27.085,27.085,0,1,0,0-54.17Zm16.6,43.68a23.333,23.333,0,0,1-16.6,6.873H28.38a14.447,14.447,0,0,1-2.887-28.6l2.967-.6-.073-3.027V49.9a10.833,10.833,0,0,1,19.047-7.1l2.627,3.027L52.766,42.9a23.466,23.466,0,1,1,34.328,32C86.906,75.118,86.706,75.318,86.506,75.518Z" transform="translate(-3.646 -8.92)" fill="#fff"/>
    <path id="Tracciato_1454_-_Contorno" data-name="Tracciato 1454 - Contorno" d="M69.906,31.335a27.585,27.585,0,1,1,.006,55.17H28.354a18.553,18.553,0,0,1-4.087-36.651A14.94,14.94,0,0,1,50.109,39.7a27.507,27.507,0,0,1,19.3-8.354v0Zm.483,1h-.533a26.506,26.506,0,0,0-19.39,8.434l-.379.406-.364-.419A13.94,13.94,0,0,0,25.266,49.9v.768l-.4.081A17.553,17.553,0,0,0,28.354,85.5H69.913a26.585,26.585,0,0,0,.476-53.166Zm-.453,2.592a23.959,23.959,0,0,1,17.531,40.3c-.2.229-.406.437-.607.638a23.834,23.834,0,0,1-16.892,7.02H28.38A14.947,14.947,0,0,1,25.393,53.3l2.557-.517-.063-2.62V49.9a11.333,11.333,0,0,1,19.926-7.426l2.259,2.6L52.4,42.559a23.9,23.9,0,0,1,17.536-7.627Zm.032,46.96a22.834,22.834,0,0,0,16.184-6.726c.2-.2.388-.388.564-.592l.013-.015a22.966,22.966,0,1,0-33.6-31.32l-3.084,3.335-2.992-3.448A10.333,10.333,0,0,0,28.886,49.9v.262l.083,3.44-3.378.683a13.947,13.947,0,0,0,2.788,27.61Z" transform="translate(-3.646 -8.92)" fill="#fff"/>
    <g id="Raggruppa_608" data-name="Raggruppa 608" transform="translate(-11 6.109)">
      <path id="Tracciato_1434" data-name="Tracciato 1434" d="M345.908,384.043c-.874,0-4.58,5.1-4.58,7.633a4.587,4.587,0,1,0,9.174,0C350.5,389.141,346.782,384.043,345.908,384.043Zm.007,9.16a1.531,1.531,0,0,1-1.53-1.519,7.968,7.968,0,0,1,1.169-2.629c.119-.2.237-.39.358-.569.116.179.237.372.358.569a7.93,7.93,0,0,1,1.174,2.629A1.531,1.531,0,0,1,345.915,393.2Z" transform="translate(-306.142 -306.152)" fill="#fff"/>
      <path id="Tracciato_1435" data-name="Tracciato 1435" d="M345.908,384.043c-.874,0-4.58,5.1-4.58,7.633a4.587,4.587,0,1,0,9.174,0C350.5,389.141,346.782,384.043,345.908,384.043Zm.007,9.16a1.531,1.531,0,0,1-1.53-1.519,7.968,7.968,0,0,1,1.169-2.629c.119-.2.237-.39.358-.569.116.179.237.372.358.569a7.93,7.93,0,0,1,1.174,2.629A1.531,1.531,0,0,1,345.915,393.2Z" transform="translate(-288.142 -304.043)" fill="#fff"/>
      <path id="Tracciato_1436" data-name="Tracciato 1436" d="M345.908,384.043c-.874,0-4.58,5.1-4.58,7.633a4.587,4.587,0,1,0,9.174,0C350.5,389.141,346.782,384.043,345.908,384.043Zm.007,9.16a1.531,1.531,0,0,1-1.53-1.519,7.968,7.968,0,0,1,1.169-2.629c.119-.2.237-.39.358-.569.116.179.237.372.358.569a7.93,7.93,0,0,1,1.174,2.629A1.531,1.531,0,0,1,345.915,393.2Z" transform="translate(-272.142 -308.152)" fill="#fff"/>
    </g>
  </g>
</svg>
