<svg id="Livello_2" data-name="Livello 2" xmlns="http://www.w3.org/2000/svg" width="100" height="100" viewBox="0 0 100 100">
  <rect id="Rettangolo_681" data-name="Rettangolo 681" width="100" height="100" fill="none"/>
  <path id="Tracciato_1468" data-name="Tracciato 1468" d="M89.948,50.683a8.287,8.287,0,0,1-4.307.667,28.167,28.167,0,0,1-7.08,28.133h0a28.287,28.287,0,1,1-13-47.4,6.187,6.187,0,0,1,3.46-3.933,32.84,32.84,0,0,0-10.453-1.7h0a33,33,0,1,0,31.747,24A2.42,2.42,0,0,1,89.948,50.683Z" transform="translate(-7.493 -10.486)" fill="#fff"/>
  <path id="Tracciato_1454" data-name="Tracciato 1454" d="M104.357,24.68a13.467,13.467,0,0,0-9.887,4.293A7.22,7.22,0,0,0,81.8,33.707a1.625,1.625,0,0,0,0,.18A9.027,9.027,0,0,0,83.6,51.76h20.76a13.54,13.54,0,0,0,0-27.08Zm8.3,21.84a11.687,11.687,0,0,1-8.3,3.433H83.6a7.227,7.227,0,0,1-1.447-14.3l1.487-.3L83.6,33.84v-.133A5.413,5.413,0,0,1,93.1,30.153l1.333,1.513,1.353-1.44a11.732,11.732,0,1,1,17.162,16Z" transform="translate(-23.828 -9.896)" fill="#fff"/>
  <path id="Tracciato_1454_-_Contorno" data-name="Tracciato 1454 - Contorno" d="M104.329,23.48h.034a14.74,14.74,0,0,1,0,29.48H83.6a10.227,10.227,0,0,1-2.959-20.016,8.42,8.42,0,0,1,13.83-5.654A14.721,14.721,0,0,1,104.329,23.48Zm7.761,21.912A10.532,10.532,0,0,0,96.668,31.045l0,0-2.256,2.4L92.2,30.939A4.213,4.213,0,0,0,84.8,33.7v.12l.066,2.506-2.472.5A6.027,6.027,0,0,0,83.6,48.753h20.782a10.487,10.487,0,0,0,7.424-3.081Z" transform="translate(-23.828 -9.896)" fill="#fff"/>
  <g id="raggi" transform="translate(-2.273 -3.361)">
    <path id="Tracciato_906" data-name="Tracciato 906" d="M2.326,13.029A2.326,2.326,0,0,0,4.652,10.7h0V2.328A2.326,2.326,0,1,0,0,2.328H0V10.7A2.326,2.326,0,0,0,2.326,13.029Z" transform="translate(36.917 7.587) rotate(-17)" fill="#fff"/>
    <path id="Tracciato_1457" data-name="Tracciato 1457" d="M2.326,13.029A2.326,2.326,0,0,0,4.652,10.7h0V2.328A2.326,2.326,0,1,0,0,2.328H0V10.7A2.326,2.326,0,0,0,2.326,13.029Z" transform="translate(61.513 88.036) rotate(-17)" fill="#fff"/>
    <path id="Tracciato_1458" data-name="Tracciato 1458" d="M2.326,13.029A2.326,2.326,0,0,0,4.652,10.7h0V2.328A2.326,2.326,0,1,0,0,2.328H0V10.7A2.326,2.326,0,0,0,2.326,13.029Z" transform="matrix(0.899, 0.438, -0.438, 0.899, 33.325, 83.371)" fill="#fff"/>
    <path id="Tracciato_1460" data-name="Tracciato 1460" d="M2.326,13.029A2.326,2.326,0,0,0,4.652,10.7h0V2.328A2.326,2.326,0,1,0,0,2.328H0V10.7A2.326,2.326,0,0,0,2.326,13.029Z" transform="translate(18.757 61.504) rotate(73)" fill="#fff"/>
    <path id="Tracciato_1461" data-name="Tracciato 1461" d="M2.326,13.029A2.326,2.326,0,0,0,4.652,10.7h0V2.328A2.326,2.326,0,1,0,0,2.328H0V10.7A2.326,2.326,0,0,0,2.326,13.029Z" transform="translate(8.774 33.467) rotate(-62)" fill="#fff"/>
    <path id="Tracciato_1462" data-name="Tracciato 1462" d="M2.326,13.029A2.326,2.326,0,0,0,4.652,10.7h0V2.328A2.326,2.326,0,1,0,0,2.328H0V10.7A2.326,2.326,0,0,0,2.326,13.029Z" transform="translate(84.561 71.606) rotate(-62)" fill="#fff"/>
  </g>
  <path id="Tracciato_1474" data-name="Tracciato 1474" d="M345.076,384.043c-.715,0-3.748,4.172-3.748,6.246a3.754,3.754,0,0,0,7.507,0C348.835,388.215,345.791,384.043,345.076,384.043Zm.005,7.5a1.253,1.253,0,0,1-1.252-1.243,6.521,6.521,0,0,1,.957-2.152c.1-.163.194-.319.293-.466.1.147.194.3.293.466a6.489,6.489,0,0,1,.96,2.152A1.253,1.253,0,0,1,345.082,391.539Z" transform="translate(-286.642 -337.678)" fill="#fff"/>
  <path id="Tracciato_1501" data-name="Tracciato 1501" d="M5.022,9.69A.62.62,0,0,0,5,9.038H5L4.45,8.2,5.581,6.24,6.713,8.2l-.553.838h0a.62.62,0,0,0,.828.879.628.628,0,0,0,.207-.2h0l.211-.32.118.205h0A.62.62,0,1,0,8.6,8.987h0L8.48,8.781l.383-.023h0a.614.614,0,0,0,.273-.081.62.62,0,0,0-.347-1.156h0l-1,.06L6.656,5.62H8.919l.449.9h0a.62.62,0,0,0,1.108-.554h0l-.171-.343h.236a.62.62,0,1,0,0-1.24h-.236l.172-.342h0a.62.62,0,1,0-1.108-.554h0l-.449.9H6.656l1.132-1.96,1,.06h0a.62.62,0,0,0,.347-1.156.612.612,0,0,0-.273-.082h0l-.382-.023L8.6,1.013A.62.62,0,0,0,7.526.394L7.407.6,7.2.278h0a.61.61,0,0,0-.206-.2.62.62,0,0,0-.828.878h0l.552.837L5.581,3.759,4.45,1.8,5,.962H5A.62.62,0,1,0,3.968.279h0L3.756.6l-.118-.2a.62.62,0,0,0-1.075.62l.119.205L2.3,1.241h0a.62.62,0,1,0,.075,1.237h0l1-.06L4.507,4.38H2.244l-.449-.9h0a.62.62,0,1,0-1.108.554h0l.171.343H.62a.62.62,0,0,0,0,1.24H.857l-.171.343h0a.62.62,0,1,0,1.108.554h0l.449-.9H4.507L3.376,7.58l-1-.06h0A.619.619,0,1,0,2.3,8.758h0l.382.023-.119.205a.62.62,0,1,0,1.074.62L3.756,9.4l.211.32h0A.62.62,0,0,0,5.022,9.69Z" transform="translate(64.741 46.146)" fill="#fff"/>
</svg>
