<svg id="Livello_2" data-name="Livello 2" xmlns="http://www.w3.org/2000/svg" width="100" height="100" viewBox="0 0 100 100">
  <rect id="Rettangolo_686" data-name="Rettangolo 686" width="100" height="100" fill="none"/>
  <path id="Tracciato_1350" data-name="Tracciato 1350" d="M50.29,36.873A32.46,32.46,0,0,1,52.4,25.34,32.713,32.713,0,1,0,94.537,67.493,32.727,32.727,0,0,1,50.29,36.873ZM87.623,74.347a30,30,0,1,1-39.48-43.9A35.467,35.467,0,0,0,83.07,72.313a36.193,36.193,0,0,0,6.347-.58,30.587,30.587,0,0,1-1.82,2.613Z" transform="translate(-16.387 -1.016)" fill="#fff"/>
  <path id="Tracciato_1350_-_Contorno" data-name="Tracciato 1350 - Contorno" d="M54.125,23.624l-.786,2.071A31.348,31.348,0,0,0,51.29,36.873,31.726,31.726,0,0,0,94.185,66.557l2.066-.777-.778,2.066a33.707,33.707,0,0,1-31.53,21.826,33.994,33.994,0,0,1-4.064-.245A33.711,33.711,0,0,1,52.051,24.4ZM83.019,70.588A33.727,33.727,0,0,1,49.29,36.874a33.324,33.324,0,0,1,1.451-9.76,31.711,31.711,0,0,0,9.379,60.328,31.983,31.983,0,0,0,3.824.231A31.72,31.72,0,0,0,92.766,69.149,33.583,33.583,0,0,1,83.019,70.588ZM49.533,28.412l-.406,2.215a34.466,34.466,0,0,0,33.9,40.686h.041a35.285,35.285,0,0,0,6.17-.564l2.217-.4-1.19,1.914q-.341.548-.706,1.085h.1l-1.251,1.613A31,31,0,1,1,47.618,29.6Zm33.494,44.9A36.464,36.464,0,0,1,46.816,32.542,29,29,0,1,0,86.126,74.61l.681-.877q.259-.333.509-.676a37.28,37.28,0,0,1-4.243.256Z" transform="translate(-16.387 -1.016)" fill="#fff"/>
  <path id="Tracciato_1454" data-name="Tracciato 1454" d="M102.094,25.4a13.527,13.527,0,0,0-9.913,4.3,7.22,7.22,0,0,0-12.667,4.76v.187a9.027,9.027,0,0,0,1.82,17.813h20.76a13.547,13.547,0,0,0,0-27.087Zm8.3,21.84a11.687,11.687,0,0,1-8.3,3.44H81.334a7.22,7.22,0,0,1-1.447-14.3l1.48-.3v-1.62a5.413,5.413,0,0,1,9.48-3.58L92.18,32.39l1.333-1.46a11.733,11.733,0,0,1,17.167,16Z" transform="translate(-30.163 -13.025)" fill="#fff"/>
  <path id="Tracciato_1454_-_Contorno" data-name="Tracciato 1454 - Contorno" d="M100.894,24.143l1.227.027a14.747,14.747,0,0,1,0,29.486H81.3a10.227,10.227,0,0,1-2.96-19.928A8.42,8.42,0,0,1,92.18,28.014a14.8,14.8,0,0,1,8.714-3.77ZM109.53,46.4l.273-.292A10.533,10.533,0,1,0,94.4,31.744l-2.231,2.443L89.947,31.67a4.213,4.213,0,0,0-7.38,2.785v2.6l-2.442.495A6.02,6.02,0,0,0,81.3,49.477h20.812A10.487,10.487,0,0,0,109.53,46.4Z" transform="translate(-30.163 -13.025)" fill="#fff"/>
  <path id="Tracciato_1487" data-name="Tracciato 1487" d="M345.076,384.043c-.715,0-3.748,4.172-3.748,6.246a3.754,3.754,0,0,0,7.507,0C348.835,388.215,345.791,384.043,345.076,384.043Zm.005,7.5a1.253,1.253,0,0,1-1.252-1.243,6.521,6.521,0,0,1,.957-2.152c.1-.163.194-.319.293-.466.1.147.194.3.293.466a6.489,6.489,0,0,1,.96,2.152A1.253,1.253,0,0,1,345.082,391.539Z" transform="translate(-289.643 -340.273)" fill="#fff"/>
  <path id="Tracciato_1502" data-name="Tracciato 1502" d="M5.022,9.69A.62.62,0,0,0,5,9.038H5L4.45,8.2,5.581,6.24,6.713,8.2l-.553.838h0a.62.62,0,0,0,.828.879.628.628,0,0,0,.207-.2h0l.211-.32.118.205h0A.62.62,0,1,0,8.6,8.987h0L8.48,8.781l.383-.023h0a.614.614,0,0,0,.273-.081.62.62,0,0,0-.347-1.156h0l-1,.06L6.656,5.62H8.919l.449.9h0a.62.62,0,0,0,1.108-.554h0l-.171-.343h.236a.62.62,0,1,0,0-1.24h-.236l.172-.342h0a.62.62,0,1,0-1.108-.554h0l-.449.9H6.656l1.132-1.96,1,.06h0a.62.62,0,0,0,.347-1.156.612.612,0,0,0-.273-.082h0l-.382-.023L8.6,1.013A.62.62,0,0,0,7.526.394L7.407.6,7.2.278h0a.61.61,0,0,0-.206-.2.62.62,0,0,0-.828.878h0l.552.837L5.581,3.759,4.45,1.8,5,.962H5A.62.62,0,1,0,3.968.279h0L3.756.6l-.118-.2a.62.62,0,0,0-1.075.62l.119.205L2.3,1.241h0a.62.62,0,1,0,.075,1.237h0l1-.06L4.507,4.38H2.244l-.449-.9h0a.62.62,0,1,0-1.108.554h0l.171.343H.62a.62.62,0,0,0,0,1.24H.857l-.171.343h0a.62.62,0,1,0,1.108.554h0l.449-.9H4.507L3.376,7.58l-1-.06h0A.619.619,0,1,0,2.3,8.758h0l.382.023-.119.205a.62.62,0,1,0,1.074.62L3.756,9.4l.211.32h0A.62.62,0,0,0,5.022,9.69Z" transform="translate(63.777 43.77)" fill="#fff"/>
</svg>
