<svg id="Livello_2" data-name="Livello 2" xmlns="http://www.w3.org/2000/svg" width="100" height="100.001" viewBox="0 0 100 100.001">
  <rect id="Rettangolo_682" data-name="Rettangolo 682" width="100" height="100" fill="none"/>
  <g id="Raggruppa_597" data-name="Raggruppa 597" transform="translate(1.183 -7.021)">
    <path id="Tracciato_1469" data-name="Tracciato 1469" d="M85.268,58.5a27.387,27.387,0,0,1-5.108,15.975c1.3,2.047,1.157,4.2.65,6.376A32.164,32.164,0,0,0,57.666,26.32h0A32.164,32.164,0,0,0,28.531,72.138a3.151,3.151,0,0,1,.182-.26,7.045,7.045,0,0,1,3.86-1.95A27.582,27.582,0,1,1,85.216,58.484Z" transform="translate(-8.856 -5.609)" fill="#fff"/>
    <path id="Tracciato_1454" data-name="Tracciato 1454" d="M60.691,74.78A19.231,19.231,0,0,0,46.6,80.9,10.288,10.288,0,0,0,28.54,87.642v.279a12.862,12.862,0,0,0,2.567,25.47H60.691a19.3,19.3,0,1,0,0-38.591ZM72.519,105.9a16.657,16.657,0,0,1-11.828,4.9H31.107a10.288,10.288,0,0,1-2.054-20.374l2.112-.429-.052-2.158v-.195a7.721,7.721,0,0,1,13.544-5.056l1.872,2.158,1.95-2.086a16.722,16.722,0,1,1,24.456,22.812c-.137.143-.267.286-.416.429Z" transform="translate(-6.311 -22.574)" fill="#fff"/>
    <path id="Tracciato_1454_-_Contorno" data-name="Tracciato 1454 - Contorno" d="M60.664,73.78h1.026v.042a20.3,20.3,0,0,1-1,40.567H31.08a13.862,13.862,0,0,1-3.529-27.267A11.288,11.288,0,0,1,46.61,79.459,20.232,20.232,0,0,1,60.664,73.78Zm.026,38.611a18.3,18.3,0,0,0,0-36.591h-.878a18.231,18.231,0,0,0-12.481,5.778l-.758.813-.729-.84a9.288,9.288,0,0,0-16.305,6.09v1.1l-.8.162a11.862,11.862,0,0,0,2.343,23.489H60.691Zm.02-36.05a17.717,17.717,0,0,1,12.956,29.81l-.009.01-.1.108c-.1.11-.211.224-.336.343a17.658,17.658,0,0,1-12.5,5.186H31.079a11.288,11.288,0,0,1-2.222-22.355l1.289-.262-.032-1.344v-.195a8.721,8.721,0,0,1,15.3-5.713l1.145,1.32,1.191-1.275a17.676,17.676,0,0,1,12.962-5.633Zm11.5,28.441a15.722,15.722,0,1,0-23-21.443l-2.709,2.9-2.6-3a6.721,6.721,0,0,0-11.789,4.4v.181l.072,2.983-2.933.6A9.288,9.288,0,0,0,31.079,109.8h29.64a15.658,15.658,0,0,0,11.091-4.606l.017-.017c.092-.088.18-.181.274-.28Z" transform="translate(-6.311 -22.574)" fill="#fff"/>
    <g id="raggi" transform="translate(2.951 7.022)">
      <path id="Tracciato_906" data-name="Tracciato 906" d="M2.267,12.7a2.267,2.267,0,0,0,2.268-2.268h0V2.269A2.268,2.268,0,1,0,0,2.269H0v8.163A2.267,2.267,0,0,0,2.267,12.7Z" transform="translate(29.85 1.326) rotate(-17)" fill="#fff"/>
      <path id="Tracciato_1456" data-name="Tracciato 1456" d="M2.267,12.7a2.267,2.267,0,0,0,2.268-2.268h0V2.269A2.268,2.268,0,1,0,0,2.269H0v8.163A2.267,2.267,0,0,0,2.267,12.7Z" transform="matrix(0.899, 0.438, -0.438, 0.899, 66.917, 3.107)" fill="#fff"/>
      <path id="Tracciato_1459" data-name="Tracciato 1459" d="M2.267,12.7a2.267,2.267,0,0,0,2.268-2.268h0V2.269A2.268,2.268,0,1,0,0,2.269H0v8.163A2.267,2.267,0,0,0,2.267,12.7Z" transform="translate(90.406 29.964) rotate(73)" fill="#fff"/>
      <path id="Tracciato_1460" data-name="Tracciato 1460" d="M2.267,12.7a2.267,2.267,0,0,0,2.268-2.268h0V2.269A2.268,2.268,0,1,0,0,2.269H0v8.163A2.267,2.267,0,0,0,2.267,12.7Z" transform="translate(12.147 53.888) rotate(73)" fill="#fff"/>
      <path id="Tracciato_1461" data-name="Tracciato 1461" d="M2.267,12.7a2.267,2.267,0,0,0,2.268-2.268h0V2.269A2.268,2.268,0,1,0,0,2.269H0v8.163A2.267,2.267,0,0,0,2.267,12.7Z" transform="translate(2.415 26.556) rotate(-62)" fill="#fff"/>
      <path id="Tracciato_1462" data-name="Tracciato 1462" d="M2.267,12.7a2.267,2.267,0,0,0,2.268-2.268h0V2.269A2.268,2.268,0,1,0,0,2.269H0v8.163A2.267,2.267,0,0,0,2.267,12.7Z" transform="translate(76.296 63.735) rotate(-62)" fill="#fff"/>
    </g>
    <path id="Tracciato_1481" data-name="Tracciato 1481" d="M345.793,384.043c-.852,0-4.465,4.969-4.465,7.441a4.472,4.472,0,0,0,8.943,0C350.271,389.012,346.645,384.043,345.793,384.043Zm.007,8.93a1.492,1.492,0,0,1-1.491-1.48,7.768,7.768,0,0,1,1.14-2.563c.116-.194.231-.38.349-.555.113.175.231.362.349.555a7.73,7.73,0,0,1,1.144,2.563A1.492,1.492,0,0,1,345.8,392.973Z" transform="translate(-314.34 -288.934)" fill="#fff"/>
    <path id="Tracciato_1503" data-name="Tracciato 1503" d="M5.982,11.541a.738.738,0,0,0-.024-.776h0l-.658-1L6.648,7.432,8,9.767l-.658,1h0a.739.739,0,0,0,.986,1.046.748.748,0,0,0,.246-.233h0l.251-.381.141.244h0a.739.739,0,1,0,1.28-.739h0l-.142-.245.457-.027h0a.731.731,0,0,0,.325-.1.738.738,0,0,0-.413-1.376h0l-1.192.071L7.927,6.693h2.7l.535,1.069h0a.738.738,0,0,0,1.32-.66h0l-.2-.409h.281a.738.738,0,1,0,0-1.477h-.281l.2-.408h0a.738.738,0,1,0-1.32-.66h0l-.535,1.069h-2.7L9.276,2.881l1.192.071h0a.738.738,0,0,0,.413-1.376.729.729,0,0,0-.325-.1h0L10.1,1.451l.141-.244A.738.738,0,0,0,8.963.469L8.821.712,8.57.331h0A.727.727,0,0,0,8.323.1a.738.738,0,0,0-.986,1.046h0l.658,1L6.648,4.477,5.3,2.143l.658-1h0A.738.738,0,1,0,4.726.332h0L4.474.712,4.333.469a.739.739,0,0,0-1.28.738l.142.244-.456.027h0a.738.738,0,1,0,.089,1.474h0l1.192-.071L5.368,5.216h-2.7L2.138,4.147h0a.738.738,0,1,0-1.32.66h0l.2.408H.738a.738.738,0,0,0,0,1.477h.282l-.2.409h0a.738.738,0,1,0,1.32.66h0l.534-1.069h2.7L4.021,9.028,2.827,8.957h0a.738.738,0,1,0-.088,1.473h0l.456.027-.141.244a.739.739,0,1,0,1.279.739l.141-.245.252.381h0a.738.738,0,0,0,1.256-.038Z" transform="translate(42.595 95.112)" fill="#fff"/>
  </g>
</svg>
