<svg id="Livello_2" data-name="Livello 2" xmlns="http://www.w3.org/2000/svg" width="100" height="100" viewBox="0 0 100 100">
  <rect id="Rettangolo_684" data-name="Rettangolo 684" width="100" height="100" fill="none"/>
  <g id="Raggruppa_607" data-name="Raggruppa 607" transform="translate(0 -10.458)">
    <path id="Tracciato_1454" data-name="Tracciato 1454" d="M69.906,31.838A27.007,27.007,0,0,0,50.1,40.432,14.44,14.44,0,0,0,24.766,49.9q0,.18,0,.36A18.053,18.053,0,0,0,28.366,86h41.54a27.085,27.085,0,1,0,0-54.17Zm16.6,43.68a23.333,23.333,0,0,1-16.6,6.873H28.38a14.447,14.447,0,0,1-2.887-28.6l2.967-.6-.073-3.027V49.9a10.833,10.833,0,0,1,19.047-7.1l2.627,3.027L52.766,42.9a23.466,23.466,0,1,1,34.328,32C86.906,75.118,86.706,75.318,86.506,75.518Z" transform="translate(-3.646 -8.92)" fill="#fff"/>
    <path id="Tracciato_1454_-_Contorno" data-name="Tracciato 1454 - Contorno" d="M69.906,31.335a27.585,27.585,0,1,1,.006,55.17H28.354a18.553,18.553,0,0,1-4.087-36.651A14.94,14.94,0,0,1,50.109,39.7a27.507,27.507,0,0,1,19.3-8.354v0Zm.483,1h-.533a26.506,26.506,0,0,0-19.39,8.434l-.379.406-.364-.419A13.94,13.94,0,0,0,25.266,49.9v.768l-.4.081A17.553,17.553,0,0,0,28.354,85.5H69.913a26.585,26.585,0,0,0,.476-53.166Zm-.453,2.592a23.959,23.959,0,0,1,17.531,40.3c-.2.229-.406.437-.607.638a23.834,23.834,0,0,1-16.892,7.02H28.38A14.947,14.947,0,0,1,25.393,53.3l2.557-.517-.063-2.62V49.9a11.333,11.333,0,0,1,19.926-7.426l2.259,2.6L52.4,42.559a23.9,23.9,0,0,1,17.536-7.627Zm.032,46.96a22.834,22.834,0,0,0,16.184-6.726c.2-.2.388-.388.564-.592l.013-.015a22.966,22.966,0,1,0-33.6-31.32l-3.084,3.335-2.992-3.448A10.333,10.333,0,0,0,28.886,49.9v.262l.083,3.44-3.378.683a13.947,13.947,0,0,0,2.788,27.61Z" transform="translate(-3.646 -8.92)" fill="#fff"/>
    <g id="Raggruppa_610" data-name="Raggruppa 610" transform="translate(-5)">
      <path id="Tracciato_1434" data-name="Tracciato 1434" d="M346.95,384.043c-1.072,0-5.622,6.257-5.622,9.37a5.63,5.63,0,0,0,11.261,0C352.589,390.3,348.022,384.043,346.95,384.043Zm.008,11.245a1.879,1.879,0,0,1-1.878-1.864,9.78,9.78,0,0,1,1.435-3.228c.146-.245.291-.478.44-.7.143.22.291.456.44.7a9.733,9.733,0,0,1,1.441,3.228A1.879,1.879,0,0,1,346.958,395.288Z" transform="translate(-308.642 -301.043)" fill="#fff"/>
      <path id="Tracciato_1507" data-name="Tracciato 1507" d="M7.534,14.535a.93.93,0,0,0-.03-.977h0L6.675,12.3l1.7-2.941,1.7,2.941-.829,1.256h0a.93.93,0,0,0,1.241,1.318.943.943,0,0,0,.31-.293h0l.316-.48.177.308h0A.931.931,0,1,0,12.9,13.48h0l-.179-.308.575-.034h0a.921.921,0,0,0,.409-.121.93.93,0,0,0-.521-1.733h0l-1.5.09L9.984,8.43h3.4l.673,1.346h0a.929.929,0,0,0,1.662-.831h0l-.256-.515h.354a.93.93,0,1,0,0-1.86h-.354l.258-.514h0a.929.929,0,1,0-1.662-.831h0L13.379,6.57h-3.4l1.7-2.941,1.5.09h0A.93.93,0,0,0,13.7,1.986a.918.918,0,0,0-.409-.123h0l-.574-.034L12.9,1.52A.93.93,0,0,0,11.288.59L11.11.9l-.316-.48h0a.916.916,0,0,0-.309-.294A.93.93,0,0,0,9.242,1.442h0L10.07,2.7l-1.7,2.941L6.676,2.7,7.5,1.443h0A.93.93,0,1,0,5.952.419h0L5.635.9,5.457.59a.93.93,0,0,0-1.612.929l.179.308-.574.034h0a.93.93,0,1,0,.112,1.856h0l1.5-.09,1.7,2.941h-3.4L2.693,5.223h0a.929.929,0,1,0-1.662.831h0l.257.514H.93a.93.93,0,0,0,0,1.86h.356l-.257.515h0a.929.929,0,1,0,1.662.831h0L3.366,8.43h3.4l-1.7,2.941-1.5-.09h0a.929.929,0,1,0-.111,1.855h0l.574.034-.178.308a.93.93,0,1,0,1.611.931l.178-.308.317.48h0a.929.929,0,0,0,1.581-.048Z" transform="translate(53.939 83)" fill="#fff"/>
    </g>
  </g>
</svg>
