<svg xmlns="http://www.w3.org/2000/svg" width="88.527" height="100" viewBox="0 0 88.527 100">
  <g id="fog_2" transform="translate(-35.466)">
    <path id="Tracciato_793" data-name="Tracciato 793" d="M121.7,115.875A27.324,27.324,0,0,0,94.748,138.7a1.935,1.935,0,0,0,2.183,1.952,2.213,2.213,0,0,0,2.434-1.952A22.777,22.777,0,1,1,121.7,165.97h-5.434a2.274,2.274,0,0,0,0,4.547H121.7a27.321,27.321,0,0,0,0-54.642Z" transform="translate(-47.703 -93.243)" fill="#fff"/>
    <path id="Tracciato_795" data-name="Tracciato 795" d="M411.545,244.359H397.907a2.274,2.274,0,1,0,0,4.547h13.638a2.274,2.274,0,0,0,0-4.547Z" transform="translate(-289.822 -196.633)" fill="#fff"/>
    <path id="Tracciato_796" data-name="Tracciato 796" d="M348.4,85.088v0l9.644-9.64h0a2.273,2.273,0,0,0-3.217-3.213s0,0,0,0l-9.64,9.637a2.273,2.273,0,0,0,3.217,3.213Z" transform="translate(-248.688 -57.589)" fill="#fff"/>
    <path id="Tracciato_797" data-name="Tracciato 797" d="M225.639,421.18a2.272,2.272,0,1,0-4.544,0h0v13.635h0a2.273,2.273,0,1,0,4.546,0h0V421.18Z" transform="translate(-149.371 -337.088)" fill="#fff"/>
    <path id="Tracciato_798" data-name="Tracciato 798" d="M221.094,15.907h0a2.273,2.273,0,1,0,4.546,0V2.272h0a2.273,2.273,0,0,0-4.546,0V15.907Z" transform="translate(-149.372)" fill="#fff"/>
    <path id="Tracciato_799" data-name="Tracciato 799" d="M358.034,378.088l-9.637-9.64v0a2.272,2.272,0,0,0-3.217,3.211h0l9.644,9.644h0a2.273,2.273,0,1,0,3.217-3.214Z" transform="translate(-248.688 -295.95)" fill="#fff"/>
    <path id="Tracciato_800" data-name="Tracciato 800" d="M48.968,75.448l9.64,9.64h0a2.272,2.272,0,1,0,3.213-3.213l0,0-9.64-9.64h0a2.272,2.272,0,0,0-3.213,3.213Z" transform="translate(-10.328 -57.589)" fill="#fff"/>
    <path id="Tracciato_1400" data-name="Tracciato 1400" d="M164.445,310.654a1.854,1.854,0,0,0-.06-1.948h0l-1.653-2.505,3.384-5.864L169.5,306.2l-1.653,2.505h0a1.855,1.855,0,0,0,2.475,2.628,1.878,1.878,0,0,0,.618-.584h0l.63-.956.353.614h0a1.856,1.856,0,1,0,3.214-1.856h0l-.356-.614,1.147-.068v0a1.835,1.835,0,0,0,.815-.242,1.853,1.853,0,0,0-1.038-3.456v0l-2.994.179-3.387-5.864h6.77l1.342,2.685h0a1.853,1.853,0,0,0,3.315-1.658h0l-.511-1.027h.706a1.854,1.854,0,1,0,0-3.709h-.706l.514-1.024,0,0a1.853,1.853,0,1,0-3.315-1.658h0l-1.342,2.685h-6.77l3.387-5.864,2.994.179h0a1.854,1.854,0,0,0,1.038-3.456,1.83,1.83,0,0,0-.815-.244v0l-1.144-.068.353-.614a1.854,1.854,0,1,0-3.212-1.853l-.356.611-.63-.956,0,0a1.826,1.826,0,0,0-.617-.587,1.854,1.854,0,0,0-2.475,2.628v0l1.652,2.5-3.386,5.864-3.383-5.864,1.652-2.5v0a1.854,1.854,0,1,0-3.095-2.041v0l-.633.956-.353-.611a1.855,1.855,0,0,0-3.214,1.853l.356.614-1.144.068v0a1.854,1.854,0,1,0,.223,3.7h0l2.994-.179,3.384,5.864h-6.77l-1.342-2.685h0a1.853,1.853,0,1,0-3.315,1.657l0,0,.512,1.025h-.709a1.854,1.854,0,0,0,0,3.709h.709l-.512,1.027h0a1.853,1.853,0,1,0,3.315,1.658h0l1.342-2.685h6.77l-3.384,5.864-3-.179v0a1.852,1.852,0,1,0-.222,3.7v0l1.144.068-.355.614a1.855,1.855,0,1,0,3.213,1.856l.355-.614.632.956h0a1.853,1.853,0,0,0,3.153-.1Z" transform="translate(-113.957 -231.719)" fill="#fff"/>
    <path id="Tracciato_1409" data-name="Tracciato 1409" d="M8.146,15.716a1.006,1.006,0,0,0-.032-1.056h0l-.9-1.358,1.835-3.18,1.836,3.18-.9,1.358h0a1.006,1.006,0,0,0,1.342,1.425,1.019,1.019,0,0,0,.335-.317h0l.342-.519.192.333h0a1.006,1.006,0,1,0,1.743-1.006h0l-.193-.333.622-.037h0a1,1,0,0,0,.442-.131,1.005,1.005,0,0,0-.563-1.874v0l-1.624.1-1.837-3.18h3.671l.728,1.456h0a1,1,0,0,0,1.8-.9h0l-.277-.557H17.1a1.006,1.006,0,1,0,0-2.011h-.383l.278-.555,0,0a1,1,0,1,0-1.8-.9h0L14.466,7.1H10.795l1.837-3.18,1.624.1h0a1.005,1.005,0,0,0,.563-1.874.992.992,0,0,0-.442-.133v0l-.62-.037.192-.333a1.005,1.005,0,0,0-1.741-1L12.013.97,11.671.451h0a.99.99,0,0,0-.334-.318A1.005,1.005,0,0,0,9.993,1.559v0l.9,1.357L9.053,6.1,7.218,2.918l.9-1.357v0A1.005,1.005,0,1,0,6.436.453h0L6.092.97,5.9.638a1.006,1.006,0,0,0-1.743,1l.193.333-.62.037v0a1.005,1.005,0,1,0,.121,2.007h0l1.624-.1L7.31,7.1H3.639L2.911,5.648h0a1,1,0,1,0-1.8.9h0L1.39,7.1H1.006a1.006,1.006,0,0,0,0,2.011H1.39l-.278.557h0a1,1,0,1,0,1.8.9h0l.728-1.456H7.31l-1.835,3.18L3.85,12.2h0A1,1,0,1,0,3.73,14.2v0l.62.037-.192.333A1.006,1.006,0,1,0,5.9,15.582l.192-.333.343.519h0a1,1,0,0,0,1.71-.052Z" transform="translate(76.545 41.715) rotate(40)" fill="#fff"/>
  </g>
</svg>
