<svg xmlns="http://www.w3.org/2000/svg" width="96" height="98.672" viewBox="0 0 96 98.672">
  <g id="fog_2" transform="translate(-37.669 -21.98)">
    <path id="Tracciato_1400" data-name="Tracciato 1400" d="M161.5,304.982a1.491,1.491,0,0,0-.048-1.567h0l-1.33-2.015,2.722-4.716,2.723,4.716-1.33,2.015h0a1.492,1.492,0,0,0,1.991,2.113,1.51,1.51,0,0,0,.5-.47h0l.507-.769.284.494h0a1.493,1.493,0,1,0,2.585-1.493h0l-.286-.494.922-.055v0a1.476,1.476,0,0,0,.656-.195,1.491,1.491,0,0,0-.835-2.78v0l-2.408.144-2.724-4.716h5.445l1.08,2.159h0a1.49,1.49,0,0,0,2.666-1.333h0l-.411-.826h.568a1.492,1.492,0,1,0,0-2.983h-.568l.413-.824,0,0a1.49,1.49,0,1,0-2.666-1.333h0l-1.08,2.159h-5.445l2.724-4.716,2.408.144h0a1.491,1.491,0,0,0,.835-2.78,1.472,1.472,0,0,0-.656-.2v0l-.92-.055.284-.494a1.491,1.491,0,0,0-2.583-1.49l-.286.492-.507-.769,0,0a1.468,1.468,0,0,0-.5-.472,1.491,1.491,0,0,0-1.991,2.113v0L165.573,286l-2.723,4.716L160.129,286l1.329-2.013v0a1.491,1.491,0,1,0-2.489-1.641v0l-.509.769-.284-.492a1.492,1.492,0,0,0-2.585,1.49l.286.494-.92.055v0a1.491,1.491,0,1,0,.179,2.976h0l2.408-.144,2.722,4.716h-5.445l-1.08-2.159h0a1.49,1.49,0,1,0-2.666,1.333l0,0,.412.824h-.57a1.492,1.492,0,1,0,0,2.983h.57l-.412.826h0a1.49,1.49,0,1,0,2.666,1.333h0l1.08-2.159h5.445l-2.722,4.716-2.41-.144v0a1.49,1.49,0,1,0-.178,2.974v0l.92.055-.285.494a1.492,1.492,0,1,0,2.584,1.493l.285-.494.508.769h0a1.49,1.49,0,0,0,2.536-.077Z" transform="translate(-70.783 -229.883)" fill="#fff"/>
    <path id="Tracciato_1401" data-name="Tracciato 1401" d="M27.1,24.58A46.35,46.35,0,0,1,30.072,8.195a46.463,46.463,0,1,0,59.87,59.868A46.481,46.481,0,0,1,27.1,24.58ZM80.091,77.8a42.808,42.808,0,0,1-9.147,8.728A42.591,42.591,0,0,1,11.611,27.191,42.856,42.856,0,0,1,24.052,15.457a50.666,50.666,0,0,0-.824,9.123,50.386,50.386,0,0,0,59.451,49.5A42.252,42.252,0,0,1,80.091,77.8Z" transform="translate(37.669 22.519)" fill="#fff"/>
    <path id="Tracciato_1402" data-name="Tracciato 1402" d="M8.228,15.874A1.016,1.016,0,0,0,8.2,14.807h0L7.29,13.435l1.854-3.212L11,13.435l-.906,1.372h0a1.016,1.016,0,0,0,1.356,1.439,1.029,1.029,0,0,0,.339-.32h0l.345-.524.193.336h0a1.016,1.016,0,1,0,1.761-1.016h0l-.195-.336.628-.037h0a1.006,1.006,0,0,0,.447-.133,1.015,1.015,0,0,0-.569-1.893v0l-1.64.1L10.9,9.207h3.708l.735,1.47h0a1.015,1.015,0,0,0,1.816-.908h0l-.28-.563h.387a1.016,1.016,0,1,0,0-2.031h-.387l.281-.561,0,0A1.015,1.015,0,1,0,15.348,5.7h0l-.735,1.47H10.9l1.855-3.212,1.64.1h0a1.015,1.015,0,0,0,.569-1.893,1,1,0,0,0-.447-.134v0L13.894,2l.193-.336A1.015,1.015,0,0,0,12.329.645L12.134.98,11.788.456h0a1,1,0,0,0-.338-.321,1.016,1.016,0,0,0-1.356,1.439v0L11,2.947,9.144,6.159,7.291,2.947l.9-1.371v0A1.015,1.015,0,1,0,6.5.457h0L6.154.98,5.96.645A1.016,1.016,0,0,0,4.2,1.66L4.395,2l-.627.037v0A1.015,1.015,0,1,0,3.89,4.062h0l1.64-.1L7.384,7.175H3.676L2.941,5.7h0a1.015,1.015,0,1,0-1.816.908h0l.28.561H1.016a1.016,1.016,0,0,0,0,2.032H1.4l-.28.563h0a1.015,1.015,0,1,0,1.816.908h0l.735-1.47H7.384L5.53,12.418l-1.642-.1h0a1.015,1.015,0,1,0-.121,2.026v0l.627.037-.194.336a1.016,1.016,0,1,0,1.76,1.016l.194-.336.346.524h0a1.015,1.015,0,0,0,1.727-.052Z" transform="matrix(0.799, -0.602, 0.602, 0.799, 88.979, 32.986)" fill="#fff"/>
    <path id="Tracciato_1403" data-name="Tracciato 1403" d="M8.228,15.874A1.016,1.016,0,0,0,8.2,14.807h0L7.29,13.435l1.854-3.212L11,13.435l-.906,1.372h0a1.016,1.016,0,0,0,1.356,1.439,1.029,1.029,0,0,0,.339-.32h0l.345-.524.193.336h0a1.016,1.016,0,1,0,1.761-1.016h0l-.195-.336.628-.037h0a1.006,1.006,0,0,0,.447-.133,1.015,1.015,0,0,0-.569-1.893v0l-1.64.1L10.9,9.207h3.708l.735,1.47h0a1.015,1.015,0,0,0,1.816-.908h0l-.28-.563h.387a1.016,1.016,0,1,0,0-2.031h-.387l.281-.561,0,0A1.015,1.015,0,1,0,15.348,5.7h0l-.735,1.47H10.9l1.855-3.212,1.64.1h0a1.015,1.015,0,0,0,.569-1.893,1,1,0,0,0-.447-.134v0L13.894,2l.193-.336A1.015,1.015,0,0,0,12.329.645L12.134.98,11.788.456h0a1,1,0,0,0-.338-.321,1.016,1.016,0,0,0-1.356,1.439v0L11,2.947,9.144,6.159,7.291,2.947l.9-1.371v0A1.015,1.015,0,1,0,6.5.457h0L6.154.98,5.96.645A1.016,1.016,0,0,0,4.2,1.66L4.395,2l-.627.037v0A1.015,1.015,0,1,0,3.89,4.062h0l1.64-.1L7.384,7.175H3.676L2.941,5.7h0a1.015,1.015,0,1,0-1.816.908h0l.28.561H1.016a1.016,1.016,0,0,0,0,2.032H1.4l-.28.563h0a1.015,1.015,0,1,0,1.816.908h0l.735-1.47H7.384L5.53,12.418l-1.642-.1h0a1.015,1.015,0,1,0-.121,2.026v0l.627.037-.194.336a1.016,1.016,0,1,0,1.76,1.016l.194-.336.346.524h0a1.015,1.015,0,0,0,1.727-.052Z" transform="translate(119.66 55.502) rotate(40)" fill="#fff"/>
  </g>
</svg>
