<svg id="Livello_2" data-name="Livello 2" xmlns="http://www.w3.org/2000/svg" width="100" height="100" viewBox="0 0 100 100">
  <rect id="Rettangolo_681" data-name="Rettangolo 681" width="100" height="100" fill="none"/>
  <path id="Tracciato_1468" data-name="Tracciato 1468" d="M89.948,50.683a8.287,8.287,0,0,1-4.307.667,28.167,28.167,0,0,1-7.08,28.133h0a28.287,28.287,0,1,1-13-47.4,6.187,6.187,0,0,1,3.46-3.933,32.84,32.84,0,0,0-10.453-1.7h0a33,33,0,1,0,31.747,24A2.42,2.42,0,0,1,89.948,50.683Z" transform="translate(-7.493 -10.486)" fill="#fff"/>
  <path id="Tracciato_1454" data-name="Tracciato 1454" d="M104.357,24.68a13.467,13.467,0,0,0-9.887,4.293A7.22,7.22,0,0,0,81.8,33.707a1.625,1.625,0,0,0,0,.18A9.027,9.027,0,0,0,83.6,51.76h20.76a13.54,13.54,0,0,0,0-27.08Zm8.3,21.84a11.687,11.687,0,0,1-8.3,3.433H83.6a7.227,7.227,0,0,1-1.447-14.3l1.487-.3L83.6,33.84v-.133A5.413,5.413,0,0,1,93.1,30.153l1.333,1.513,1.353-1.44a11.732,11.732,0,1,1,17.162,16Z" transform="translate(-23.828 -9.896)" fill="#fff"/>
  <path id="Tracciato_1454_-_Contorno" data-name="Tracciato 1454 - Contorno" d="M104.329,23.48h.034a14.74,14.74,0,0,1,0,29.48H83.6a10.227,10.227,0,0,1-2.959-20.016,8.42,8.42,0,0,1,13.83-5.654A14.721,14.721,0,0,1,104.329,23.48Zm7.761,21.912A10.532,10.532,0,0,0,96.668,31.045l0,0-2.256,2.4L92.2,30.939A4.213,4.213,0,0,0,84.8,33.7v.12l.066,2.506-2.472.5A6.027,6.027,0,0,0,83.6,48.753h20.782a10.487,10.487,0,0,0,7.424-3.081Z" transform="translate(-23.828 -9.896)" fill="#fff"/>
  <g id="raggi" transform="translate(-2.273 -3.361)">
    <path id="Tracciato_906" data-name="Tracciato 906" d="M2.326,13.029A2.326,2.326,0,0,0,4.652,10.7h0V2.328A2.326,2.326,0,1,0,0,2.328H0V10.7A2.326,2.326,0,0,0,2.326,13.029Z" transform="translate(36.917 7.587) rotate(-17)" fill="#fff"/>
    <path id="Tracciato_1457" data-name="Tracciato 1457" d="M2.326,13.029A2.326,2.326,0,0,0,4.652,10.7h0V2.328A2.326,2.326,0,1,0,0,2.328H0V10.7A2.326,2.326,0,0,0,2.326,13.029Z" transform="translate(61.513 88.036) rotate(-17)" fill="#fff"/>
    <path id="Tracciato_1458" data-name="Tracciato 1458" d="M2.326,13.029A2.326,2.326,0,0,0,4.652,10.7h0V2.328A2.326,2.326,0,1,0,0,2.328H0V10.7A2.326,2.326,0,0,0,2.326,13.029Z" transform="matrix(0.899, 0.438, -0.438, 0.899, 33.325, 83.371)" fill="#fff"/>
    <path id="Tracciato_1460" data-name="Tracciato 1460" d="M2.326,13.029A2.326,2.326,0,0,0,4.652,10.7h0V2.328A2.326,2.326,0,1,0,0,2.328H0V10.7A2.326,2.326,0,0,0,2.326,13.029Z" transform="translate(18.757 61.504) rotate(73)" fill="#fff"/>
    <path id="Tracciato_1461" data-name="Tracciato 1461" d="M2.326,13.029A2.326,2.326,0,0,0,4.652,10.7h0V2.328A2.326,2.326,0,1,0,0,2.328H0V10.7A2.326,2.326,0,0,0,2.326,13.029Z" transform="translate(8.774 33.467) rotate(-62)" fill="#fff"/>
    <path id="Tracciato_1462" data-name="Tracciato 1462" d="M2.326,13.029A2.326,2.326,0,0,0,4.652,10.7h0V2.328A2.326,2.326,0,1,0,0,2.328H0V10.7A2.326,2.326,0,0,0,2.326,13.029Z" transform="translate(84.561 71.606) rotate(-62)" fill="#fff"/>
  </g>
  <g id="neve">
    <path id="Tracciato_1446" data-name="Tracciato 1446" d="M6.3.389a.778.778,0,0,1-.025.817h0l-.693,1.05L7,4.715,8.42,2.256l-.693-1.05h0A.778.778,0,0,1,8.764.1a.788.788,0,0,1,.259.245h0l.264.4L9.437.493h0a.778.778,0,1,1,1.348.778h0l-.149.257.481.029h0a.77.77,0,0,1,.342.1.777.777,0,0,1-.435,1.449h0L9.767,3.035,8.347,5.493h2.839l.563-1.126h0a.777.777,0,0,1,1.39.7h0l-.214.431h.3a.778.778,0,1,1,0,1.555h-.3l.215.429h0a.777.777,0,1,1-1.39.695h0l-.563-1.126H8.347l1.42,2.459,1.256-.075h0a.777.777,0,0,1,.435,1.449.767.767,0,0,1-.342.1h0l-.48.029.148.257a.777.777,0,0,1-1.347.777l-.149-.256-.264.4h0a.766.766,0,0,1-.259.246.777.777,0,0,1-1.038-1.1h0l.693-1.049L7,7.826,5.581,10.285l.693,1.049h0a.777.777,0,1,1-1.3.856h0l-.266-.4-.148.256a.778.778,0,0,1-1.348-.777l.149-.257-.48-.029h0a.777.777,0,1,1,.094-1.552h0l1.256.075L5.653,7.048H2.814L2.251,8.174h0a.777.777,0,1,1-1.39-.695h0l.215-.43h-.3a.778.778,0,1,1,0-1.555h.3L.86,5.062h0a.777.777,0,1,1,1.39-.7h0l.563,1.126H5.653L4.234,3.034,2.977,3.11h0a.777.777,0,1,1-.093-1.551h0l.48-.029-.149-.257A.778.778,0,1,1,4.562.493L4.711.75l.265-.4h0A.777.777,0,0,1,6.3.389Z" transform="translate(63.307 59.906) rotate(180)" fill="#fff"/>
    <path id="Tracciato_1447" data-name="Tracciato 1447" d="M4.5.278a.555.555,0,0,1-.018.584h0l-.5.75L5,3.368,6.014,1.612l-.5-.75h0A.555.555,0,0,1,6.26.074a.563.563,0,0,1,.185.175h0l.189.286L6.741.352h0A.556.556,0,1,1,7.7.908h0L7.6,1.092l.343.02h0a.55.55,0,0,1,.244.072A.555.555,0,0,1,7.874,2.22h0l-.9-.054L5.962,3.924H7.99l.4-.8h0a.555.555,0,0,1,.993.5h0l-.153.308h.212a.555.555,0,1,1,0,1.111H9.233l.154.307h0a.555.555,0,1,1-.993.5h0l-.4-.8H5.962L6.977,6.791l.9-.054h0a.555.555,0,0,1,.311,1.035.548.548,0,0,1-.244.073h0l-.343.02L7.7,8.05a.555.555,0,0,1-.962.555l-.107-.183-.189.286h0a.547.547,0,0,1-.185.176A.555.555,0,0,1,5.519,8.1h0l.495-.749L5,5.59,3.987,7.346l.495.749h0a.555.555,0,1,1-.927.611h0l-.19-.286-.106.183A.556.556,0,0,1,2.3,8.05L2.4,7.866l-.343-.02h0a.555.555,0,1,1,.067-1.108h0l.9.054L4.038,5.034H2.01l-.4.8h0a.555.555,0,1,1-.993-.5h0l.153-.307H.555a.555.555,0,1,1,0-1.111H.768L.614,3.616h0a.555.555,0,1,1,.993-.5h0l.4.8H4.038L3.024,2.167l-.9.054h0A.555.555,0,1,1,2.06,1.113h0l.343-.02L2.3.908A.556.556,0,1,1,3.259.352l.106.184L3.554.249h0A.555.555,0,0,1,4.5.278Z" transform="translate(75.573 54.323) rotate(180)" fill="#fff"/>
  </g>
</svg>
