<svg id="Livello_2" data-name="Livello 2" xmlns="http://www.w3.org/2000/svg" width="100" height="100" viewBox="0 0 100 100">
  <rect id="Rettangolo_686" data-name="Rettangolo 686" width="100" height="100" fill="none"/>
  <path id="Tracciato_1350" data-name="Tracciato 1350" d="M50.29,36.873A32.46,32.46,0,0,1,52.4,25.34,32.713,32.713,0,1,0,94.537,67.493,32.727,32.727,0,0,1,50.29,36.873ZM87.623,74.347a30,30,0,1,1-39.48-43.9A35.467,35.467,0,0,0,83.07,72.313a36.193,36.193,0,0,0,6.347-.58,30.587,30.587,0,0,1-1.82,2.613Z" transform="translate(-16.387 -1.016)" fill="#fff"/>
  <path id="Tracciato_1350_-_Contorno" data-name="Tracciato 1350 - Contorno" d="M54.125,23.624l-.786,2.071A31.348,31.348,0,0,0,51.29,36.873,31.726,31.726,0,0,0,94.185,66.557l2.066-.777-.778,2.066a33.707,33.707,0,0,1-31.53,21.826,33.994,33.994,0,0,1-4.064-.245A33.711,33.711,0,0,1,52.051,24.4ZM83.019,70.588A33.727,33.727,0,0,1,49.29,36.874a33.324,33.324,0,0,1,1.451-9.76,31.711,31.711,0,0,0,9.379,60.328,31.983,31.983,0,0,0,3.824.231A31.72,31.72,0,0,0,92.766,69.149,33.583,33.583,0,0,1,83.019,70.588ZM49.533,28.412l-.406,2.215a34.466,34.466,0,0,0,33.9,40.686h.041a35.285,35.285,0,0,0,6.17-.564l2.217-.4-1.19,1.914q-.341.548-.706,1.085h.1l-1.251,1.613A31,31,0,1,1,47.618,29.6Zm33.494,44.9A36.464,36.464,0,0,1,46.816,32.542,29,29,0,1,0,86.126,74.61l.681-.877q.259-.333.509-.676a37.28,37.28,0,0,1-4.243.256Z" transform="translate(-16.387 -1.016)" fill="#fff"/>
  <path id="Tracciato_1454" data-name="Tracciato 1454" d="M102.094,25.4a13.527,13.527,0,0,0-9.913,4.3,7.22,7.22,0,0,0-12.667,4.76v.187a9.027,9.027,0,0,0,1.82,17.813h20.76a13.547,13.547,0,0,0,0-27.087Zm8.3,21.84a11.687,11.687,0,0,1-8.3,3.44H81.334a7.22,7.22,0,0,1-1.447-14.3l1.48-.3v-1.62a5.413,5.413,0,0,1,9.48-3.58L92.18,32.39l1.333-1.46a11.733,11.733,0,0,1,17.167,16Z" transform="translate(-30.163 -13.025)" fill="#fff"/>
  <path id="Tracciato_1454_-_Contorno" data-name="Tracciato 1454 - Contorno" d="M100.894,24.143l1.227.027a14.747,14.747,0,0,1,0,29.486H81.3a10.227,10.227,0,0,1-2.96-19.928A8.42,8.42,0,0,1,92.18,28.014a14.8,14.8,0,0,1,8.714-3.77ZM109.53,46.4l.273-.292A10.533,10.533,0,1,0,94.4,31.744l-2.231,2.443L89.947,31.67a4.213,4.213,0,0,0-7.38,2.785v2.6l-2.442.495A6.02,6.02,0,0,0,81.3,49.477h20.812A10.487,10.487,0,0,0,109.53,46.4Z" transform="translate(-30.163 -13.025)" fill="#fff"/>
  <g id="Raggruppa_609" data-name="Raggruppa 609" transform="translate(-5.633 8.404)">
    <path id="Tracciato_1508" data-name="Tracciato 1508" d="M6.3.389a.778.778,0,0,1-.025.817h0l-.693,1.05L7,4.715,8.42,2.256l-.693-1.05h0A.778.778,0,0,1,8.764.1a.788.788,0,0,1,.259.245h0l.264.4L9.437.493h0a.778.778,0,1,1,1.348.778h0l-.149.257.481.029h0a.77.77,0,0,1,.342.1.777.777,0,0,1-.435,1.449h0L9.767,3.035,8.347,5.493h2.839l.563-1.126h0a.777.777,0,0,1,1.39.7h0l-.214.431h.3a.778.778,0,1,1,0,1.555h-.3l.215.429h0a.777.777,0,1,1-1.39.695h0l-.563-1.126H8.347l1.42,2.459,1.256-.075h0a.777.777,0,0,1,.435,1.449.767.767,0,0,1-.342.1h0l-.48.029.148.257a.777.777,0,0,1-1.347.777l-.149-.256-.264.4h0a.766.766,0,0,1-.259.246.777.777,0,0,1-1.038-1.1h0l.693-1.049L7,7.826,5.581,10.285l.693,1.049h0a.777.777,0,1,1-1.3.856h0l-.266-.4-.148.256a.778.778,0,0,1-1.348-.777l.149-.257-.48-.029h0a.777.777,0,1,1,.094-1.552h0l1.256.075L5.653,7.048H2.814L2.251,8.174h0a.777.777,0,1,1-1.39-.695h0l.215-.43h-.3a.778.778,0,1,1,0-1.555h.3L.86,5.062h0a.777.777,0,1,1,1.39-.7h0l.563,1.126H5.653L4.234,3.034,2.977,3.11h0a.777.777,0,1,1-.093-1.551h0l.48-.029-.149-.257A.778.778,0,1,1,4.562.493L4.711.75l.265-.4h0A.777.777,0,0,1,6.3.389Z" transform="translate(68.307 49.906) rotate(180)" fill="#fff"/>
    <path id="Tracciato_1509" data-name="Tracciato 1509" d="M4.5.278a.555.555,0,0,1-.018.584h0l-.5.75L5,3.368,6.014,1.612l-.5-.75h0A.555.555,0,0,1,6.26.074a.563.563,0,0,1,.185.175h0l.189.286L6.741.352h0A.556.556,0,1,1,7.7.908h0L7.6,1.092l.343.02h0a.55.55,0,0,1,.244.072A.555.555,0,0,1,7.874,2.22h0l-.9-.054L5.962,3.924H7.99l.4-.8h0a.555.555,0,0,1,.993.5h0l-.153.308h.212a.555.555,0,1,1,0,1.111H9.233l.154.307h0a.555.555,0,1,1-.993.5h0l-.4-.8H5.962L6.977,6.791l.9-.054h0a.555.555,0,0,1,.311,1.035.548.548,0,0,1-.244.073h0l-.343.02L7.7,8.05a.555.555,0,0,1-.962.555l-.107-.183-.189.286h0a.547.547,0,0,1-.185.176A.555.555,0,0,1,5.519,8.1h0l.495-.749L5,5.59,3.987,7.346l.495.749h0a.555.555,0,1,1-.927.611h0l-.19-.286-.106.183A.556.556,0,0,1,2.3,8.05L2.4,7.866l-.343-.02h0a.555.555,0,1,1,.067-1.108h0l.9.054L4.038,5.034H2.01l-.4.8h0a.555.555,0,1,1-.993-.5h0l.153-.307H.555a.555.555,0,1,1,0-1.111H.768L.614,3.616h0a.555.555,0,1,1,.993-.5h0l.4.8H4.038L3.024,2.167l-.9.054h0A.555.555,0,1,1,2.06,1.113h0l.343-.02L2.3.908A.556.556,0,1,1,3.259.352l.106.184L3.554.249h0A.555.555,0,0,1,4.5.278Z" transform="translate(80.573 44.323) rotate(180)" fill="#fff"/>
  </g>
</svg>
