<svg id="Livello_2" data-name="Livello 2" xmlns="http://www.w3.org/2000/svg" width="100" height="100" viewBox="0 0 100 100">
  <rect id="Rettangolo_682" data-name="Rettangolo 682" width="100" height="100" fill="none"/>
  <g id="Raggruppa_597" data-name="Raggruppa 597" transform="translate(3.26 -6.021)">
    <path id="Tracciato_1469" data-name="Tracciato 1469" d="M82.56,57.039A26.146,26.146,0,0,1,77.683,72.29c1.241,1.954,1.1,4.008.62,6.087A30.707,30.707,0,0,0,56.209,26.32h0A30.707,30.707,0,0,0,28.393,70.063a3.008,3.008,0,0,1,.174-.248,6.726,6.726,0,0,1,3.686-1.861A26.333,26.333,0,1,1,82.51,57.027Z" transform="translate(-9.476 -6.229)" fill="#fff"/>
    <path id="Tracciato_1454" data-name="Tracciato 1454" d="M58.767,74.78a18.36,18.36,0,0,0-13.452,5.839,9.822,9.822,0,0,0-17.243,6.44v.267a12.279,12.279,0,0,0,2.451,24.316H58.767a18.422,18.422,0,1,0,0-36.843Zm11.292,29.708a15.9,15.9,0,0,1-11.292,4.678H30.523a9.822,9.822,0,0,1-1.961-19.452l2.017-.41-.05-2.06v-.186A7.371,7.371,0,0,1,43.46,82.232l1.787,2.06L47.108,82.3a15.964,15.964,0,1,1,23.348,21.779c-.131.136-.255.273-.4.409Z" transform="translate(-6.717 -24.62)" fill="#fff"/>
    <path id="Tracciato_1454_-_Contorno" data-name="Tracciato 1454 - Contorno" d="M58.742,73.78h1.025v.042a19.422,19.422,0,0,1-1,38.818H30.5A13.279,13.279,0,0,1,27.085,86.53a10.822,10.822,0,0,1,18.239-7.346,19.361,19.361,0,0,1,13.418-5.4Zm.025,36.862a17.422,17.422,0,1,0,0-34.843H57.93a17.36,17.36,0,0,0-11.883,5.5l-.758.813-.729-.84a8.822,8.822,0,0,0-15.487,5.785v1.086l-.8.162A11.279,11.279,0,0,0,30.5,110.642H58.767Zm.019-34.417a16.96,16.96,0,0,1,12.4,28.536l-.009.01-.1.1c-.1.105-.2.214-.322.329a16.9,16.9,0,0,1-11.966,4.964H30.5a10.822,10.822,0,0,1-2.131-21.432l1.194-.242-.03-1.247v-.186a8.371,8.371,0,0,1,14.685-5.484l1.06,1.222,1.1-1.18a16.921,16.921,0,0,1,12.408-5.393ZM69.73,103.392a14.964,14.964,0,1,0-21.89-20.41l-2.62,2.8-2.515-2.9a6.371,6.371,0,0,0-11.175,4.174v.172l.07,2.885-2.837.576A8.822,8.822,0,0,0,30.5,108.166h28.3a14.9,14.9,0,0,0,10.557-4.384l.017-.017c.087-.083.171-.172.259-.266Z" transform="translate(-6.717 -24.62)" fill="#fff"/>
    <g id="raggi" transform="translate(2.951 7.022)">
      <path id="Tracciato_906" data-name="Tracciato 906" d="M2.165,12.126A2.164,2.164,0,0,0,4.33,9.962h0v-7.8a2.165,2.165,0,1,0-4.33,0H0V9.96A2.165,2.165,0,0,0,2.165,12.126Z" transform="translate(28.498 1.266) rotate(-17)" fill="#fff"/>
      <path id="Tracciato_1456" data-name="Tracciato 1456" d="M2.165,12.126A2.164,2.164,0,0,0,4.33,9.962h0v-7.8a2.165,2.165,0,1,0-4.33,0H0V9.96A2.165,2.165,0,0,0,2.165,12.126Z" transform="matrix(0.899, 0.438, -0.438, 0.899, 63.886, 2.967)" fill="#fff"/>
      <path id="Tracciato_1459" data-name="Tracciato 1459" d="M2.165,12.126A2.164,2.164,0,0,0,4.33,9.962h0v-7.8a2.165,2.165,0,1,0-4.33,0H0V9.96A2.165,2.165,0,0,0,2.165,12.126Z" transform="translate(86.311 28.606) rotate(73)" fill="#fff"/>
      <path id="Tracciato_1460" data-name="Tracciato 1460" d="M2.165,12.126A2.164,2.164,0,0,0,4.33,9.962h0v-7.8a2.165,2.165,0,1,0-4.33,0H0V9.96A2.165,2.165,0,0,0,2.165,12.126Z" transform="translate(11.597 51.447) rotate(73)" fill="#fff"/>
      <path id="Tracciato_1461" data-name="Tracciato 1461" d="M2.165,12.126A2.164,2.164,0,0,0,4.33,9.962h0v-7.8a2.165,2.165,0,1,0-4.33,0H0V9.96A2.165,2.165,0,0,0,2.165,12.126Z" transform="translate(2.306 25.353) rotate(-62)" fill="#fff"/>
      <path id="Tracciato_1462" data-name="Tracciato 1462" d="M2.165,12.126A2.164,2.164,0,0,0,4.33,9.962h0v-7.8a2.165,2.165,0,1,0-4.33,0H0V9.96A2.165,2.165,0,0,0,2.165,12.126Z" transform="translate(72.84 60.848) rotate(-62)" fill="#fff"/>
    </g>
    <g id="neve" transform="translate(-23.183 47.115)">
      <path id="Tracciato_1446" data-name="Tracciato 1446" d="M6.3.389a.778.778,0,0,1-.025.817h0l-.693,1.05L7,4.715,8.42,2.256l-.693-1.05h0A.778.778,0,0,1,8.764.1a.788.788,0,0,1,.259.245h0l.264.4L9.437.493h0a.778.778,0,1,1,1.348.778h0l-.149.257.481.029h0a.77.77,0,0,1,.342.1.777.777,0,0,1-.435,1.449h0L9.767,3.035,8.347,5.493h2.839l.563-1.126h0a.777.777,0,0,1,1.39.7h0l-.214.431h.3a.778.778,0,1,1,0,1.555h-.3l.215.429h0a.777.777,0,1,1-1.39.695h0l-.563-1.126H8.347l1.42,2.459,1.256-.075h0a.777.777,0,0,1,.435,1.449.767.767,0,0,1-.342.1h0l-.48.029.148.257a.777.777,0,0,1-1.347.777l-.149-.256-.264.4h0a.766.766,0,0,1-.259.246.777.777,0,0,1-1.038-1.1h0l.693-1.049L7,7.826,5.581,10.285l.693,1.049h0a.777.777,0,1,1-1.3.856h0l-.266-.4-.148.256a.778.778,0,0,1-1.348-.777l.149-.257-.48-.029h0a.777.777,0,1,1,.094-1.552h0l1.256.075L5.653,7.048H2.814L2.251,8.174h0a.777.777,0,1,1-1.39-.695h0l.215-.43h-.3a.778.778,0,1,1,0-1.555h.3L.86,5.062h0a.777.777,0,1,1,1.39-.7h0l.563,1.126H5.653L4.234,3.034,2.977,3.11h0a.777.777,0,1,1-.093-1.551h0l.48-.029-.149-.257A.778.778,0,1,1,4.562.493L4.711.75l.265-.4h0A.777.777,0,0,1,6.3.389Z" transform="translate(60.307 57.906) rotate(180)" fill="#fff"/>
      <path id="Tracciato_1447" data-name="Tracciato 1447" d="M4.5.278a.555.555,0,0,1-.018.584h0l-.5.75L5,3.368,6.014,1.612l-.5-.75h0A.555.555,0,0,1,6.26.074a.563.563,0,0,1,.185.175h0l.189.286L6.741.352h0A.556.556,0,1,1,7.7.908h0L7.6,1.092l.343.02h0a.55.55,0,0,1,.244.072A.555.555,0,0,1,7.874,2.22h0l-.9-.054L5.962,3.924H7.99l.4-.8h0a.555.555,0,0,1,.993.5h0l-.153.308h.212a.555.555,0,1,1,0,1.111H9.233l.154.307h0a.555.555,0,1,1-.993.5h0l-.4-.8H5.962L6.977,6.791l.9-.054h0a.555.555,0,0,1,.311,1.035.548.548,0,0,1-.244.073h0l-.343.02L7.7,8.05a.555.555,0,0,1-.962.555l-.107-.183-.189.286h0a.547.547,0,0,1-.185.176A.555.555,0,0,1,5.519,8.1h0l.495-.749L5,5.59,3.987,7.346l.495.749h0a.555.555,0,1,1-.927.611h0l-.19-.286-.106.183A.556.556,0,0,1,2.3,8.05L2.4,7.866l-.343-.02h0a.555.555,0,1,1,.067-1.108h0l.9.054L4.038,5.034H2.01l-.4.8h0a.555.555,0,1,1-.993-.5h0l.153-.307H.555a.555.555,0,1,1,0-1.111H.768L.614,3.616h0a.555.555,0,1,1,.993-.5h0l.4.8H4.038L3.024,2.167l-.9.054h0A.555.555,0,1,1,2.06,1.113h0l.343-.02L2.3.908A.556.556,0,1,1,3.259.352l.106.184L3.554.249h0A.555.555,0,0,1,4.5.278Z" transform="translate(75.573 54.323) rotate(180)" fill="#fff"/>
    </g>
  </g>
</svg>
