<svg id="Livello_2" data-name="Livello 2" xmlns="http://www.w3.org/2000/svg" width="100" height="100" viewBox="0 0 100 100">
  <rect id="Rettangolo_687" data-name="Rettangolo 687" width="100" height="100" fill="none"/>
  <g id="Raggruppa_601" data-name="Raggruppa 601" transform="translate(0 -8.128)">
    <path id="Tracciato_1471" data-name="Tracciato 1471" d="M75.534,38.24a27.613,27.613,0,0,1,0-19.4,27.553,27.553,0,0,0-13.6,40.453c.667-.3,1.553-.513,2.213-.853a25.22,25.22,0,0,1,7.82-35.293,29.84,29.84,0,0,0,29.42,35.247,29.333,29.333,0,0,0,5.333-.487,25.533,25.533,0,0,1-6.953,7.38,25.053,25.053,0,0,1-10,4.173,10.992,10.992,0,0,1,.667,2.207A27.553,27.553,0,0,0,111,54.333,27.573,27.573,0,0,1,75.534,38.24Z" transform="translate(-20.014 -6.641)" fill="#fff"/>
    <path id="Tracciato_1471_-_Contorno" data-name="Tracciato 1471 - Contorno" d="M77.245,17.126l-.775,2.065A26.549,26.549,0,0,0,110.65,53.4l2.064-.773-.778,2.062A28.553,28.553,0,0,1,90.624,72.649l-.984.19-.188-.984a10.012,10.012,0,0,0-.606-2.006L88.361,68.7l1.23-.221a24.134,24.134,0,0,0,15.017-9.253,30.384,30.384,0,0,1-3.208.17h-.086A30.837,30.837,0,0,1,70.651,25.256a24.222,24.222,0,0,0-5.667,32.635l.61.929-.988.509a10.256,10.256,0,0,1-1.372.545c-.327.112-.636.218-.889.332l-.793.357-.463-.736A28.553,28.553,0,0,1,75.181,17.9Zm24.093,39.965A28.548,28.548,0,0,1,73.891,20.625,26.551,26.551,0,0,0,62.355,58.061l.23-.079.08-.028A26.221,26.221,0,0,1,71.442,22.3L73.36,21.11l-.409,2.217a28.84,28.84,0,0,0,28.362,34.066h.086a28.407,28.407,0,0,0,5.14-.47l2.224-.41-1.193,1.921A26.171,26.171,0,0,1,91.1,70.209q.042.138.081.277a26.55,26.55,0,0,0,18.035-14.51A28.377,28.377,0,0,1,101.338,57.091Z" transform="translate(-20.014 -6.641)" fill="#fff"/>
    <path id="Tracciato_1454" data-name="Tracciato 1454" d="M58.262,72.86a19.707,19.707,0,0,0-14.453,6.28,10.56,10.56,0,0,0-18.533,6.913v.267a13.193,13.193,0,0,0,2.667,26.127h30.32a19.793,19.793,0,1,0,0-39.587ZM70.4,104.78a17.087,17.087,0,0,1-12.133,5.027H27.916a10.56,10.56,0,0,1-2.113-20.9l2.167-.44-.053-2.18v-.2a7.92,7.92,0,0,1,13.9-5.187l1.92,2.213,2-2.14a17.153,17.153,0,1,1,25.087,23.4c-.14.113-.28.266-.427.406Z" transform="translate(-5.675 -24.646)" fill="#fff"/>
    <path id="Tracciato_1454_-_Contorno" data-name="Tracciato 1454 - Contorno" d="M58.234,71.86h.03a20.793,20.793,0,1,1,0,41.587H27.88a14.193,14.193,0,0,1-3.592-27.924,11.56,11.56,0,0,1,19.53-7.82A20.709,20.709,0,0,1,58.234,71.86Zm.029,39.587a18.793,18.793,0,1,0,0-37.587h-.029a18.706,18.706,0,0,0-13.693,5.961l-.758.814-.729-.84a9.56,9.56,0,0,0-16.778,6.259v1.084l-.8.162a12.193,12.193,0,0,0,2.407,24.146H58.262Zm.021-36.927a18.148,18.148,0,0,1,13.271,30.536l-.048.052-.055.044c-.052.042-.13.119-.2.194-.05.05-.1.1-.151.148a18.087,18.087,0,0,1-12.8,5.312H27.916A11.56,11.56,0,0,1,25.6,87.927l1.35-.274-.033-1.367v-.2a8.92,8.92,0,0,1,15.655-5.842l1.193,1.375,1.242-1.329A18.106,18.106,0,0,1,58.283,74.52Zm11.85,29.127A16.153,16.153,0,0,0,46.467,81.655l-2.759,2.952L41.06,81.555a6.92,6.92,0,0,0-12.145,4.532v.187l.074,3.005L26,89.887a9.56,9.56,0,0,0,1.917,18.92H58.292a16.087,16.087,0,0,0,11.4-4.733l.018-.018c.043-.041.085-.083.127-.125C69.922,103.841,70.023,103.741,70.133,103.647Z" transform="translate(-5.675 -24.646)" fill="#fff"/>
    <g id="neve" transform="translate(-24.922 47.779)">
      <path id="Tracciato_1446" data-name="Tracciato 1446" d="M6.3.389a.778.778,0,0,1-.025.817h0l-.693,1.05L7,4.715,8.42,2.256l-.693-1.05h0A.778.778,0,0,1,8.764.1a.788.788,0,0,1,.259.245h0l.264.4L9.437.493h0a.778.778,0,1,1,1.348.778h0l-.149.257.481.029h0a.77.77,0,0,1,.342.1.777.777,0,0,1-.435,1.449h0L9.767,3.035,8.347,5.493h2.839l.563-1.126h0a.777.777,0,0,1,1.39.7h0l-.214.431h.3a.778.778,0,1,1,0,1.555h-.3l.215.429h0a.777.777,0,1,1-1.39.695h0l-.563-1.126H8.347l1.42,2.459,1.256-.075h0a.777.777,0,0,1,.435,1.449.767.767,0,0,1-.342.1h0l-.48.029.148.257a.777.777,0,0,1-1.347.777l-.149-.256-.264.4h0a.766.766,0,0,1-.259.246.777.777,0,0,1-1.038-1.1h0l.693-1.049L7,7.826,5.581,10.285l.693,1.049h0a.777.777,0,1,1-1.3.856h0l-.266-.4-.148.256a.778.778,0,0,1-1.348-.777l.149-.257-.48-.029h0a.777.777,0,1,1,.094-1.552h0l1.256.075L5.653,7.048H2.814L2.251,8.174h0a.777.777,0,1,1-1.39-.695h0l.215-.43h-.3a.778.778,0,1,1,0-1.555h.3L.86,5.062h0a.777.777,0,1,1,1.39-.7h0l.563,1.126H5.653L4.234,3.034,2.977,3.11h0a.777.777,0,1,1-.093-1.551h0l.48-.029-.149-.257A.778.778,0,1,1,4.562.493L4.711.75l.265-.4h0A.777.777,0,0,1,6.3.389Z" transform="translate(60.307 57.906) rotate(180)" fill="#fff"/>
      <path id="Tracciato_1447" data-name="Tracciato 1447" d="M4.5.278a.555.555,0,0,1-.018.584h0l-.5.75L5,3.368,6.014,1.612l-.5-.75h0A.555.555,0,0,1,6.26.074a.563.563,0,0,1,.185.175h0l.189.286L6.741.352h0A.556.556,0,1,1,7.7.908h0L7.6,1.092l.343.02h0a.55.55,0,0,1,.244.072A.555.555,0,0,1,7.874,2.22h0l-.9-.054L5.962,3.924H7.99l.4-.8h0a.555.555,0,0,1,.993.5h0l-.153.308h.212a.555.555,0,1,1,0,1.111H9.233l.154.307h0a.555.555,0,1,1-.993.5h0l-.4-.8H5.962L6.977,6.791l.9-.054h0a.555.555,0,0,1,.311,1.035.548.548,0,0,1-.244.073h0l-.343.02L7.7,8.05a.555.555,0,0,1-.962.555l-.107-.183-.189.286h0a.547.547,0,0,1-.185.176A.555.555,0,0,1,5.519,8.1h0l.495-.749L5,5.59,3.987,7.346l.495.749h0a.555.555,0,1,1-.927.611h0l-.19-.286-.106.183A.556.556,0,0,1,2.3,8.05L2.4,7.866l-.343-.02h0a.555.555,0,1,1,.067-1.108h0l.9.054L4.038,5.034H2.01l-.4.8h0a.555.555,0,1,1-.993-.5h0l.153-.307H.555a.555.555,0,1,1,0-1.111H.768L.614,3.616h0a.555.555,0,1,1,.993-.5h0l.4.8H4.038L3.024,2.167l-.9.054h0A.555.555,0,1,1,2.06,1.113h0l.343-.02L2.3.908A.556.556,0,1,1,3.259.352l.106.184L3.554.249h0A.555.555,0,0,1,4.5.278Z" transform="translate(75.573 54.323) rotate(180)" fill="#fff"/>
    </g>
  </g>
</svg>
