<svg id="Livello_2" data-name="Livello 2" xmlns="http://www.w3.org/2000/svg" width="100" height="100" viewBox="0 0 100 100">
  <rect id="Rettangolo_683" data-name="Rettangolo 683" width="100" height="100" fill="none"/>
  <g id="Raggruppa_605" data-name="Raggruppa 605" transform="translate(4.813 -4.458)">
    <path id="Tracciato_1470" data-name="Tracciato 1470" d="M80.135,46.664a8.973,8.973,0,0,1,4.5.227A29.623,29.623,0,0,0,56.123,25.32h0A29.617,29.617,0,0,0,27.816,63.569,10.953,10.953,0,0,1,31.7,61.774,25.381,25.381,0,1,1,80.16,46.645Z" transform="translate(-10.347 -6.161)" fill="#fff"/>
    <path id="Tracciato_1454" data-name="Tracciato 1454" d="M68.785,54.838a24.233,24.233,0,0,0-17.773,7.711,12.957,12.957,0,0,0-22.732,8.494q0,.162,0,.323a16.2,16.2,0,0,0,3.23,32.075H68.773a24.3,24.3,0,1,0,0-48.607Zm14.9,39.194a20.937,20.937,0,0,1-14.9,6.167H31.523a12.963,12.963,0,0,1-2.59-25.663L31.595,74l-.066-2.716v-.239a9.721,9.721,0,0,1,17.091-6.371l2.357,2.716,2.429-2.626a21.056,21.056,0,1,1,30.8,28.715C84.039,93.673,83.859,93.853,83.68,94.032Z" transform="translate(-5.834 -18.02)" fill="#fff"/>
    <path id="Tracciato_1454_-_Contorno" data-name="Tracciato 1454 - Contorno" d="M64.719,54.335h4.054a24.8,24.8,0,1,1,.006,49.607H31.5a16.7,16.7,0,0,1-3.718-32.979,13.457,13.457,0,0,1,23.24-9.148,24.757,24.757,0,0,1,14.526-7.272Zm4.485,1H68.74A23.732,23.732,0,0,0,51.378,62.89L51,63.3l-.364-.419a12.457,12.457,0,0,0-21.854,8.167v.731l-.4.081A15.7,15.7,0,0,0,31.5,102.942H68.778a23.8,23.8,0,0,0,.426-47.6Zm-.393,2.224A21.55,21.55,0,0,1,84.58,93.811c-.179.207-.366.394-.546.574A21.438,21.438,0,0,1,68.84,100.7H31.523a13.463,13.463,0,0,1-2.69-26.653l2.252-.456-.056-2.309v-.239A10.22,10.22,0,0,1,49,64.346l1.99,2.293,2.05-2.216a21.5,21.5,0,0,1,15.773-6.86ZM68.84,99.7a20.438,20.438,0,0,0,14.485-6.02c.179-.179.347-.347.5-.529l.013-.015A20.556,20.556,0,1,0,53.771,65.1l-2.806,3.034L48.242,65a9.221,9.221,0,0,0-16.213,6.041v.235l.076,3.129-3.073.621A12.463,12.463,0,0,0,31.523,99.7Z" transform="translate(-5.834 -18.02)" fill="#fff"/>
    <g id="raggi" transform="translate(3.13 5.422)">
      <path id="Tracciato_906" data-name="Tracciato 906" d="M2.087,11.691A2.087,2.087,0,0,0,4.174,9.6h0V2.089A2.087,2.087,0,1,0,0,2.089H0V9.6A2.087,2.087,0,0,0,2.087,11.691Z" transform="matrix(0.777, -0.629, 0.629, 0.777, 12.064, 11.573)" fill="#fff"/>
      <path id="Tracciato_1456" data-name="Tracciato 1456" d="M2.087,11.691A2.087,2.087,0,0,0,4.174,9.6h0V2.089A2.087,2.087,0,1,0,0,2.089H0V9.6A2.087,2.087,0,0,0,2.087,11.691Z" transform="matrix(0.996, 0.087, -0.087, 0.996, 44.443, 0)" fill="#fff"/>
      <path id="Tracciato_1459" data-name="Tracciato 1459" d="M2.087,11.691A2.087,2.087,0,0,0,4.174,9.6h0V2.089A2.087,2.087,0,1,0,0,2.089H0V9.6A2.087,2.087,0,0,0,2.087,11.691Z" transform="translate(75.094 14.801) rotate(56)" fill="#fff"/>
      <path id="Tracciato_1461" data-name="Tracciato 1461" d="M2.087,11.691A2.087,2.087,0,0,0,4.174,9.6h0V2.089A2.087,2.087,0,1,0,0,2.089H0V9.6A2.087,2.087,0,0,0,2.087,11.691Z" transform="matrix(0.105, -0.995, 0.995, 0.105, 0, 38.156)" fill="#fff"/>
    </g>
    <g id="neve" transform="translate(-18.096 45.589)">
      <path id="Tracciato_1446" data-name="Tracciato 1446" d="M6.3.389a.778.778,0,0,1-.025.817h0l-.693,1.05L7,4.715,8.42,2.256l-.693-1.05h0A.778.778,0,0,1,8.764.1a.788.788,0,0,1,.259.245h0l.264.4L9.437.493h0a.778.778,0,1,1,1.348.778h0l-.149.257.481.029h0a.77.77,0,0,1,.342.1.777.777,0,0,1-.435,1.449h0L9.767,3.035,8.347,5.493h2.839l.563-1.126h0a.777.777,0,0,1,1.39.7h0l-.214.431h.3a.778.778,0,1,1,0,1.555h-.3l.215.429h0a.777.777,0,1,1-1.39.695h0l-.563-1.126H8.347l1.42,2.459,1.256-.075h0a.777.777,0,0,1,.435,1.449.767.767,0,0,1-.342.1h0l-.48.029.148.257a.777.777,0,0,1-1.347.777l-.149-.256-.264.4h0a.766.766,0,0,1-.259.246.777.777,0,0,1-1.038-1.1h0l.693-1.049L7,7.826,5.581,10.285l.693,1.049h0a.777.777,0,1,1-1.3.856h0l-.266-.4-.148.256a.778.778,0,0,1-1.348-.777l.149-.257-.48-.029h0a.777.777,0,1,1,.094-1.552h0l1.256.075L5.653,7.048H2.814L2.251,8.174h0a.777.777,0,1,1-1.39-.695h0l.215-.43h-.3a.778.778,0,1,1,0-1.555h.3L.86,5.062h0a.777.777,0,1,1,1.39-.7h0l.563,1.126H5.653L4.234,3.034,2.977,3.11h0a.777.777,0,1,1-.093-1.551h0l.48-.029-.149-.257A.778.778,0,1,1,4.562.493L4.711.75l.265-.4h0A.777.777,0,0,1,6.3.389Z" transform="translate(60.307 57.906) rotate(180)" fill="#fff"/>
      <path id="Tracciato_1447" data-name="Tracciato 1447" d="M4.5.278a.555.555,0,0,1-.018.584h0l-.5.75L5,3.368,6.014,1.612l-.5-.75h0A.555.555,0,0,1,6.26.074a.563.563,0,0,1,.185.175h0l.189.286L6.741.352h0A.556.556,0,1,1,7.7.908h0L7.6,1.092l.343.02h0a.55.55,0,0,1,.244.072A.555.555,0,0,1,7.874,2.22h0l-.9-.054L5.962,3.924H7.99l.4-.8h0a.555.555,0,0,1,.993.5h0l-.153.308h.212a.555.555,0,1,1,0,1.111H9.233l.154.307h0a.555.555,0,1,1-.993.5h0l-.4-.8H5.962L6.977,6.791l.9-.054h0a.555.555,0,0,1,.311,1.035.548.548,0,0,1-.244.073h0l-.343.02L7.7,8.05a.555.555,0,0,1-.962.555l-.107-.183-.189.286h0a.547.547,0,0,1-.185.176A.555.555,0,0,1,5.519,8.1h0l.495-.749L5,5.59,3.987,7.346l.495.749h0a.555.555,0,1,1-.927.611h0l-.19-.286-.106.183A.556.556,0,0,1,2.3,8.05L2.4,7.866l-.343-.02h0a.555.555,0,1,1,.067-1.108h0l.9.054L4.038,5.034H2.01l-.4.8h0a.555.555,0,1,1-.993-.5h0l.153-.307H.555a.555.555,0,1,1,0-1.111H.768L.614,3.616h0a.555.555,0,1,1,.993-.5h0l.4.8H4.038L3.024,2.167l-.9.054h0A.555.555,0,1,1,2.06,1.113h0l.343-.02L2.3.908A.556.556,0,1,1,3.259.352l.106.184L3.554.249h0A.555.555,0,0,1,4.5.278Z" transform="translate(75.573 54.323) rotate(180)" fill="#fff"/>
    </g>
  </g>
</svg>
