<svg xmlns="http://www.w3.org/2000/svg" width="100" height="100.086" viewBox="0 0 100 100.086">
  <g id="Livello_2" data-name="Livello 2" transform="translate(-1 -1.914)">
    <rect id="Rettangolo_688" data-name="Rettangolo 688" width="100" height="100" transform="translate(1 2)" fill="none"/>
    <g id="Raggruppa_606" data-name="Raggruppa 606" transform="translate(2.537 -6.699)">
      <path id="Tracciato_1454" data-name="Tracciato 1454" d="M69.6,52.588a25.451,25.451,0,0,0-18.628,8.09,13.595,13.595,0,0,0-23.85,8.906v.345a17,17,0,0,0,3.4,33.654h39.1a25.5,25.5,0,1,0,0-51ZM85.226,93.711A22,22,0,0,1,69.6,100.182H30.5a13.6,13.6,0,0,1-2.718-26.926l2.787-.565L30.5,69.842v-.257a10.2,10.2,0,0,1,17.9-6.7l2.511,2.849,2.573-2.755A22.1,22.1,0,1,1,85.81,93.108C85.6,93.334,85.414,93.523,85.226,93.711Z" transform="translate(-5.843 -15.24)" fill="#fff"/>
      <path id="Tracciato_1454_-_Contorno" data-name="Tracciato 1454 - Contorno" d="M69.549,52.085h.062a26,26,0,1,1,.006,52H30.5A17.5,17.5,0,0,1,26.62,69.526a14.094,14.094,0,0,1,24.359-9.582,25.95,25.95,0,0,1,18.557-7.855Zm.067,51a25,25,0,0,0,.056-50l-.012,0H69.58a24.949,24.949,0,0,0-18.245,7.931l-.379.406-.364-.419a13.095,13.095,0,0,0-22.973,8.579v.753l-.4.081A16.5,16.5,0,0,0,30.5,103.084h39.12ZM70,55.066A22.6,22.6,0,0,1,86.171,93.455c-.223.236-.406.425-.591.61a22.5,22.5,0,0,1-15.937,6.617H30.5a14.1,14.1,0,0,1-2.818-27.915l2.377-.482L30,69.842v-.257A10.7,10.7,0,0,1,48.78,62.56l2.144,2.433,2.193-2.348A22.617,22.617,0,0,1,70,55.066Zm-.358,44.616a21.5,21.5,0,0,0,15.229-6.324c.18-.18.357-.362.574-.593l.006-.006A21.6,21.6,0,1,0,53.86,63.314l-.008.009L50.9,66.481l-2.875-3.263A9.7,9.7,0,0,0,31,69.584v.252l.079,3.263-3.2.648A13.1,13.1,0,0,0,30.5,99.682Z" transform="translate(-5.843 -15.24)" fill="#fff"/>
      <path id="Tracciato_1472" data-name="Tracciato 1472" d="M94.74,22.9a17.831,17.831,0,0,1,0-12.553A17.8,17.8,0,0,0,88.6,39.786c.628-.107,1.305-.176,1.958-.238A16.3,16.3,0,0,1,92.43,13.162a19.343,19.343,0,0,0,22.5,22.495,17.065,17.065,0,0,1-1,1.425,16.218,16.218,0,0,1-6.477,5.021c.565.264,1.123.546,1.67.847a17.825,17.825,0,0,0,8.592-9.6A17.844,17.844,0,0,1,94.74,22.9Z" transform="translate(-31.794 0.486)" fill="#fff"/>
      <path id="Tracciato_1472_-_Contorno" data-name="Tracciato 1472 - Contorno" d="M96.965,8.126l-1.008,2.681a16.546,16.546,0,0,0,21.3,21.328l2.685-1.007-1.012,2.683a19.083,19.083,0,0,1-9.219,10.3l-.614.313-.6-.333c-.507-.279-1.042-.551-1.591-.808l-2.636-1.23,2.674-1.143a14.955,14.955,0,0,0,5.141-3.646q-.306.009-.612.01h-.058A20.6,20.6,0,0,1,90.823,16.006a15.082,15.082,0,0,0-2.107,2.405,14.95,14.95,0,0,0,2.667,20.136l2.407,2-3.112.3c-.623.06-1.28.127-1.865.226l-.65.111-.473-.459A19.1,19.1,0,0,1,94.283,9.133Z" transform="translate(-31.794 0.486)" fill="#fff"/>
      <g id="neve" transform="translate(-14.82 48.656)">
        <path id="Tracciato_1446" data-name="Tracciato 1446" d="M6.3.389a.778.778,0,0,1-.025.817h0l-.693,1.05L7,4.715,8.42,2.256l-.693-1.05h0A.778.778,0,0,1,8.764.1a.788.788,0,0,1,.259.245h0l.264.4L9.437.493h0a.778.778,0,1,1,1.348.778h0l-.149.257.481.029h0a.77.77,0,0,1,.342.1.777.777,0,0,1-.435,1.449h0L9.767,3.035,8.347,5.493h2.839l.563-1.126h0a.777.777,0,0,1,1.39.7h0l-.214.431h.3a.778.778,0,1,1,0,1.555h-.3l.215.429h0a.777.777,0,1,1-1.39.695h0l-.563-1.126H8.347l1.42,2.459,1.256-.075h0a.777.777,0,0,1,.435,1.449.767.767,0,0,1-.342.1h0l-.48.029.148.257a.777.777,0,0,1-1.347.777l-.149-.256-.264.4h0a.766.766,0,0,1-.259.246.777.777,0,0,1-1.038-1.1h0l.693-1.049L7,7.826,5.581,10.285l.693,1.049h0a.777.777,0,1,1-1.3.856h0l-.266-.4-.148.256a.778.778,0,0,1-1.348-.777l.149-.257-.48-.029h0a.777.777,0,1,1,.094-1.552h0l1.256.075L5.653,7.048H2.814L2.251,8.174h0a.777.777,0,1,1-1.39-.695h0l.215-.43h-.3a.778.778,0,1,1,0-1.555h.3L.86,5.062h0a.777.777,0,1,1,1.39-.7h0l.563,1.126H5.653L4.234,3.034,2.977,3.11h0a.777.777,0,1,1-.093-1.551h0l.48-.029-.149-.257A.778.778,0,1,1,4.562.493L4.711.75l.265-.4h0A.777.777,0,0,1,6.3.389Z" transform="translate(60.307 57.906) rotate(180)" fill="#fff"/>
        <path id="Tracciato_1447" data-name="Tracciato 1447" d="M4.5.278a.555.555,0,0,1-.018.584h0l-.5.75L5,3.368,6.014,1.612l-.5-.75h0A.555.555,0,0,1,6.26.074a.563.563,0,0,1,.185.175h0l.189.286L6.741.352h0A.556.556,0,1,1,7.7.908h0L7.6,1.092l.343.02h0a.55.55,0,0,1,.244.072A.555.555,0,0,1,7.874,2.22h0l-.9-.054L5.962,3.924H7.99l.4-.8h0a.555.555,0,0,1,.993.5h0l-.153.308h.212a.555.555,0,1,1,0,1.111H9.233l.154.307h0a.555.555,0,1,1-.993.5h0l-.4-.8H5.962L6.977,6.791l.9-.054h0a.555.555,0,0,1,.311,1.035.548.548,0,0,1-.244.073h0l-.343.02L7.7,8.05a.555.555,0,0,1-.962.555l-.107-.183-.189.286h0a.547.547,0,0,1-.185.176A.555.555,0,0,1,5.519,8.1h0l.495-.749L5,5.59,3.987,7.346l.495.749h0a.555.555,0,1,1-.927.611h0l-.19-.286-.106.183A.556.556,0,0,1,2.3,8.05L2.4,7.866l-.343-.02h0a.555.555,0,1,1,.067-1.108h0l.9.054L4.038,5.034H2.01l-.4.8h0a.555.555,0,1,1-.993-.5h0l.153-.307H.555a.555.555,0,1,1,0-1.111H.768L.614,3.616h0a.555.555,0,1,1,.993-.5h0l.4.8H4.038L3.024,2.167l-.9.054h0A.555.555,0,1,1,2.06,1.113h0l.343-.02L2.3.908A.556.556,0,1,1,3.259.352l.106.184L3.554.249h0A.555.555,0,0,1,4.5.278Z" transform="translate(75.573 54.323) rotate(180)" fill="#fff"/>
      </g>
    </g>
  </g>
</svg>
