<svg id="Livello_2" data-name="Livello 2" xmlns="http://www.w3.org/2000/svg" width="100" height="100" viewBox="0 0 100 100">
  <rect id="Rettangolo_684" data-name="Rettangolo 684" width="100" height="100" fill="none"/>
  <g id="Raggruppa_607" data-name="Raggruppa 607" transform="translate(0 -11.957)">
    <path id="Tracciato_1454" data-name="Tracciato 1454" d="M69.906,31.838A27.007,27.007,0,0,0,50.1,40.432,14.44,14.44,0,0,0,24.766,49.9q0,.18,0,.36A18.053,18.053,0,0,0,28.366,86h41.54a27.085,27.085,0,1,0,0-54.17Zm16.6,43.68a23.333,23.333,0,0,1-16.6,6.873H28.38a14.447,14.447,0,0,1-2.887-28.6l2.967-.6-.073-3.027V49.9a10.833,10.833,0,0,1,19.047-7.1l2.627,3.027L52.766,42.9a23.466,23.466,0,1,1,34.328,32C86.906,75.118,86.706,75.318,86.506,75.518Z" transform="translate(-3.646 -8.92)" fill="#fff"/>
    <path id="Tracciato_1454_-_Contorno" data-name="Tracciato 1454 - Contorno" d="M69.906,31.335a27.585,27.585,0,1,1,.006,55.17H28.354a18.553,18.553,0,0,1-4.087-36.651A14.94,14.94,0,0,1,50.109,39.7a27.507,27.507,0,0,1,19.3-8.354v0Zm.483,1h-.533a26.506,26.506,0,0,0-19.39,8.434l-.379.406-.364-.419A13.94,13.94,0,0,0,25.266,49.9v.768l-.4.081A17.553,17.553,0,0,0,28.354,85.5H69.913a26.585,26.585,0,0,0,.476-53.166Zm-.453,2.592a23.959,23.959,0,0,1,17.531,40.3c-.2.229-.406.437-.607.638a23.834,23.834,0,0,1-16.892,7.02H28.38A14.947,14.947,0,0,1,25.393,53.3l2.557-.517-.063-2.62V49.9a11.333,11.333,0,0,1,19.926-7.426l2.259,2.6L52.4,42.559a23.9,23.9,0,0,1,17.536-7.627Zm.032,46.96a22.834,22.834,0,0,0,16.184-6.726c.2-.2.388-.388.564-.592l.013-.015a22.966,22.966,0,1,0-33.6-31.32l-3.084,3.335-2.992-3.448A10.333,10.333,0,0,0,28.886,49.9v.262l.083,3.44-3.378.683a13.947,13.947,0,0,0,2.788,27.61Z" transform="translate(-3.646 -8.92)" fill="#fff"/>
    <g id="neve" transform="translate(-20.283 38.635)">
      <path id="Tracciato_1446" data-name="Tracciato 1446" d="M8.538.527A1.054,1.054,0,0,1,8.5,1.635h0l-.94,1.424L9.489,6.391l1.924-3.333-.94-1.424h0A1.054,1.054,0,0,1,11.88.141a1.068,1.068,0,0,1,.351.332h0l.358.544.2-.349h0a1.055,1.055,0,1,1,1.827,1.055h0l-.2.349.652.039v0a1.044,1.044,0,0,1,.463.138,1.053,1.053,0,0,1-.59,1.964v0l-1.7-.1L11.315,7.446h3.848l.763-1.526h0a1.053,1.053,0,0,1,1.884.942h0l-.29.584h.4a1.054,1.054,0,1,1,0,2.108h-.4l.292.582,0,0a1.053,1.053,0,1,1-1.884.942h0l-.763-1.526H11.315l1.925,3.333,1.7-.1h0a1.054,1.054,0,0,1,.59,1.964,1.04,1.04,0,0,1-.463.139v0l-.65.039.2.349a1.054,1.054,0,0,1-1.825,1.053l-.2-.348-.358.544,0,0a1.038,1.038,0,0,1-.351.334,1.054,1.054,0,0,1-1.407-1.493v0l.939-1.422L9.489,10.609,7.566,13.942,8.5,15.364v0a1.053,1.053,0,1,1-1.759,1.16v0l-.36-.544-.2.347a1.054,1.054,0,0,1-1.827-1.053l.2-.349-.65-.039v0a1.054,1.054,0,1,1,.127-2.1h0l1.7.1L7.663,9.554H3.815L3.052,11.08h0a1.053,1.053,0,1,1-1.884-.942l0,0,.291-.582h-.4a1.054,1.054,0,1,1,0-2.108h.4l-.291-.584h0A1.053,1.053,0,1,1,3.051,5.92h0l.763,1.526H7.663L5.739,4.113l-1.7.1v0a1.053,1.053,0,1,1-.126-2.1v0l.65-.039-.2-.349A1.054,1.054,0,1,1,6.185.668l.2.349L6.745.473h0A1.053,1.053,0,0,1,8.538.527Z" transform="translate(65.284 62.365) rotate(180)" fill="#fff"/>
      <path id="Tracciato_1447" data-name="Tracciato 1447" d="M6.1.377a.753.753,0,0,1-.024.791h0L5.4,2.185,6.778,4.565,8.152,2.185,7.481,1.168h0A.753.753,0,0,1,8.486.1a.763.763,0,0,1,.251.237h0l.256.388L9.137.477h0a.753.753,0,1,1,1.305.753h0L10.3,1.48l.466.028h0a.746.746,0,0,1,.331.1.752.752,0,0,1-.421,1.4h0L9.457,2.938,8.082,5.319h2.749l.545-1.09h0a.752.752,0,0,1,1.346.673h0l-.207.417H12.8a.753.753,0,1,1,0,1.506h-.287l.209.416h0a.752.752,0,1,1-1.346.673h0l-.545-1.09H8.082L9.457,9.205l1.216-.073h0a.753.753,0,0,1,.421,1.4.743.743,0,0,1-.331.1h0l-.464.028.143.249a.753.753,0,0,1-1.3.752l-.145-.248-.256.388h0a.741.741,0,0,1-.25.238.753.753,0,0,1-1-1.067h0l.671-1.016L6.778,7.578,5.4,9.958l.671,1.016h0a.752.752,0,1,1-1.256.828h0l-.257-.388-.143.248a.753.753,0,0,1-1.305-.752l.145-.249-.464-.028h0a.753.753,0,1,1,.091-1.5h0L4.1,9.2,5.473,6.824H2.725L2.18,7.914h0A.752.752,0,1,1,.834,7.241h0l.208-.416H.753a.753.753,0,1,1,0-1.506h.288L.833,4.9h0a.752.752,0,1,1,1.346-.673h0l.545,1.09H5.473L4.1,2.938l-1.217.073h0a.752.752,0,1,1-.09-1.5h0l.464-.028L3.113,1.23a.753.753,0,1,1,1.3-.753l.144.249L4.818.338h0A.752.752,0,0,1,6.1.377Z" transform="translate(85.979 57.508) rotate(180)" fill="#fff"/>
    </g>
  </g>
</svg>
