<svg xmlns="http://www.w3.org/2000/svg" width="312" height="69.332" viewBox="0 0 312 69.332">
  <g id="Raggruppa_777" data-name="Raggruppa 777" transform="translate(-2.962 20.661)">
    <path id="Tracciato_7415" data-name="Tracciato 7415" d="M3.041,48.174H314.465V-20.582H3.041Z" transform="translate(0.211 0.211)" fill="#fff"/>
    <path id="Tracciato_7416" data-name="Tracciato 7416" d="M314.221,47.93H72.3V-19.92H314.221Zm-242.665,0H3.7V-19.92H71.556Zm-68.594.741h312V-20.661h-312Z" transform="translate(0)" fill="#2b2e34"/>
    <path id="Tracciato_7417" data-name="Tracciato 7417" d="M49.272,23.257S45.6,21.5,44.067,20.565c-.1.158.2.587.536.836.565.44,4.142,2.678,4.142,2.678S47.772,25.524,45.78,24c-.8-.616-2.373-1.68-3.151-2.307a1.471,1.471,0,0,0,.271.686c.774.866,2.968,2.74,2.968,2.74a1.64,1.64,0,0,1-2.23-.011,17.615,17.615,0,0,1-2.472-2.073c-.015.781,1.643,2.41,1.643,2.41s-.183.649-1.4.007c-1.284-.671-3.7-5.062-4.919-4.644-.418.147-.818,1.181-.26,4.637-.95-.6-1.229.792-1.434,1.808a2.2,2.2,0,0,0-1.9-1.108,1.463,1.463,0,0,0-1.108.569c.015-.1.121-2.85-.594-3.364.205,3-1.339,3.932-1.379,3.859-.323-.569-1.753-1.526-2.638-1.152a11.77,11.77,0,0,0,.594-2.216c.734-3.533-4.068-5.965-4.054-5.928a1.857,1.857,0,0,1-.635,1.016A5.86,5.86,0,0,0,21.631,15a6.635,6.635,0,0,0-3.782-2.483c.059.312-.268.536-.719.415a4.712,4.712,0,0,0-2.109-.47c-.359.044-.334-.1-.172-.187a2.679,2.679,0,0,1,2.2-.048c-1.071-2.01-4.248-1.86-4.164-.9.026.3-.1.121-.147.044-.921-2.131,1.834-2.8,2.337-2.634.029.04.3.367.433.5a1.372,1.372,0,0,0,1.222.352c.473-.051.712-.238.752-.514a.821.821,0,0,0-.844-.774,1.47,1.47,0,0,0-.913.216c-.092-.216-.308-.363-.128-.561a2.071,2.071,0,0,1,1.522-.422,14.719,14.719,0,0,1,2.406.525,2.707,2.707,0,0,0,1.548-.319.448.448,0,0,1-.242.616c1.067.194,3.7,1.016,4.45,1.167,1.086.22,2.172.209,2.146-.106a7.743,7.743,0,0,1-1.258-.506,9.2,9.2,0,0,0,.371-1.321c.4-2.128-.763-4.318-2.876-4.49a6.422,6.422,0,0,1-3.4-.979c-1.126-.675-1.779-1.592-3.147-3.595A46.217,46.217,0,0,0,7.149-11.559c-.022-.018-.044-.048-.062-.062.653-.587,2.058.088,2.483.286A26.7,26.7,0,0,1,15.615-6.4a2.465,2.465,0,0,0-.466-1.676,17.688,17.688,0,0,0-3.767-3.279,3,3,0,0,1,2.322.2c2.891,1.643,5.748,5.763,6.141,6.251a2.8,2.8,0,0,0,0-.9c-.209-1.423-2.729-3.943-3.628-4.732a2.34,2.34,0,0,1,1.911.172c1.284.7,3.907,4.1,4.721,6.324a3.649,3.649,0,0,0-.293-2.726A16.509,16.509,0,0,0,20.4-9.611c.778-.477,2,.528,2.344.851C24.419-7.15,25.688-3.852,26.3-2.22a5.455,5.455,0,0,0-.517-3.514c.924-.752,2.861,1.691,3.1,4.145A19.834,19.834,0,0,1,28.814.745,4.407,4.407,0,0,0,29.7-2.348c2.872.862,2.436,9.108,1.53,10.5a5.14,5.14,0,0,1-1.614,1.277,7.837,7.837,0,0,0,5.242-3.709,4.564,4.564,0,0,0,.378-2.872,10.979,10.979,0,0,1-.264-4.5c.4-1.97,1.713-3.261,3.881-5.062a36.322,36.322,0,0,0,8.749-10.3l.825-1.438c.015-.022.022-.081.044-.092,1.211,2.531-1.779,6.83-3.782,9.651,0,0,.26.191.73-.066,1.42-.759,3.551-4.806,3.72-4.963a5.363,5.363,0,0,1,.158,2.065c-.227,1.834-2.322,4.71-4.541,7.2A2.223,2.223,0,0,0,45.9-4.938a16.834,16.834,0,0,0,3.628-4.593,3.922,3.922,0,0,1,.4,2.252c-.268,1.75-3.386,5.664-4.952,6.974A1.925,1.925,0,0,0,46.088-.51,13.753,13.753,0,0,0,49.837-4.7l.037.026c.33.415,0,1.548-.1,1.878A10.335,10.335,0,0,1,46.91,1.823a7.6,7.6,0,0,1-2.23,1.4,3.287,3.287,0,0,0,2.7-.631c.29-.209.374-.286.382-.323.114.807-1.31,2.667-3.485,3.353a18.8,18.8,0,0,1-2.982.638,1.317,1.317,0,0,0,.565.389,4.624,4.624,0,0,0,2.025.044A3.885,3.885,0,0,1,39.8,9.145a4.281,4.281,0,0,1-1.423-.488,2.323,2.323,0,0,0,1,1.211,2.216,2.216,0,0,0,1.4.26c-.286,1.489-5.539,3.8-8.14.385a5.6,5.6,0,0,0,2.032,3.07c4.556,3.841,9.772,4.67,11.464,5.147,1.266.352.58,1.141-.337,1.126a11.626,11.626,0,0,1,3.122,1.952,1.2,1.2,0,0,1,.348,1.449M34.621,30.484a1.8,1.8,0,0,1,.415,1.9c-.1-.763-.741-1.922-1.831-1.853-1.126.066-1.456,1.269-1.442,2.113l-.059-.073a2.012,2.012,0,0,1-.121-1.471,3.273,3.273,0,0,1,.429-.638,1.816,1.816,0,0,0-1.222.976c-.07-1.291.983-1.522,1.332-1.9s.271-1.328.271-2.249a.882.882,0,0,1,.638-.172.937.937,0,0,1,.605.352,11.038,11.038,0,0,0,.018,1.449,1.829,1.829,0,0,0,.965,1.566m-2.058,1.049h1.423l1.071,9.175h-2.08Zm-.55,9.175H27.721l.319-7.359h3.628Zm-3.155-10.5c-.594-1.592.1-1.966.172-2.146l.833.3a1.757,1.757,0,0,1,1.614-.939,2.889,2.889,0,0,1-.088,1.607c-.154.337-.5.345-1.023,1.093-.356.528-.345,1.867.554,1.919a2.265,2.265,0,0,0,.081.481H28.509a2.417,2.417,0,0,0,.348-2.318m-1.486.558a1.739,1.739,0,0,0-1.713-.077,1.788,1.788,0,0,0-.858,1.816,1.674,1.674,0,0,1,.668-2.351c-1.482-.062-1.72.767-1.621.374a1.113,1.113,0,0,1,.605-.7,5.584,5.584,0,0,0,1.823-.921,4.523,4.523,0,0,0,1.13-1.988c.389-.323.976.154,1.145.547-1.056,1.185-1.112,1.6-.737,2.392.348.752.763,1.229.139,2.293a1.769,1.769,0,0,0-.58-1.387m-.209.767-.407,9.175H24.68l1.093-9.175Zm10.906,9.175H36.026l-.719-6.4h1.618Zm2.157,0H39.037l-1.464-8.059H38.5Zm-16.515,0H21.668l1.137-6.442h1.662Zm-3.023,0H19.507l1.684-8.059h1ZM47.57,19.9c.011-.026,1.676-1.332-1.112-2.065-5.224-1.376-8.07-2.619-10.447-4.578,4.252.048,5.943-2.014,5.9-3.015a.7.7,0,0,0-.147-.4c1.772-.528,3.213-2.256,3.294-3.3,2.282-.624,4.321-3.793,3.353-5.022C50.395-.33,51.88-4.351,50.472-5.6c.99-1.522.444-4.42-.444-4.872.642-1.1.477-4.171-.558-4.567-.007,0,.143-.444.3-1.178.158-.763.026-3.125-.972-3.5-.326-.121-.822-.1-1.306.7l-.858,1.471a40.194,40.194,0,0,1-7.549,9.219L37.2-6.728a8.465,8.465,0,0,0-3.338,4.85,9.7,9.7,0,0,0,.26,4.67A4.591,4.591,0,0,1,34,5.077a9.027,9.027,0,0,1-1.72,2.37c1.277-3.98.686-10.921-2.733-10.745-.033.007-.07.011-.1.018a7.776,7.776,0,0,0-.635-1.482c-.356-.7-1.875-2.428-3.023-2.076a.811.811,0,0,0-.345.213c-1.9-3.749-4.42-4.541-5.33-3.918a1.056,1.056,0,0,0-.209.249c-.521-.558-2.883-2.282-4.53-.932-1.625-1.39-3.863-1.581-4.541-.715a.835.835,0,0,0-.11.18c-.862-.6-3.646-1.519-4.655-.312-.235.271-.348.429.877,1.555.825.748,5.935,4.732,9.131,9.446.517.774,2.128,3.287,3.577,4.16a8.182,8.182,0,0,0,3.756.95c2.227.26,2.594,2.982,1.9,4.633-1.211-.315-2.476-.69-3.283-.928a1.467,1.467,0,0,0-.117-1.078,5.262,5.262,0,0,1-2.524.367,5.015,5.015,0,0,0-2.278-.554c-.422-.011-2.616.176-2.627,1.3a3.356,3.356,0,0,0-2.15.976,2.385,2.385,0,0,0-.7,1.7,2.1,2.1,0,0,0,1.621,2.186.916.916,0,0,1,.708-1.255,2,2,0,0,1,1.46.22,1.772,1.772,0,0,0-1.72,1.321c2.065-.187,2.671.767,3.624.921.514.081.924-.029,1.034-.326.319.1,1.838.572,3.107,2.96a9.319,9.319,0,0,1,.785,3.415,2.938,2.938,0,0,0,1.845-.609c2.384,1.585,2.905,3.034,2.726,4.215a13.177,13.177,0,0,1-.965,3.287l.66.389c-.158.415-.275,1.045-1.842,1.673-2.234.917-1.467,2.546-.763,2.586a2,2,0,0,0,.275,1.581c.15.172.275.293.367.4l-.018.125H23.054l.213-1.559H20.384l-2.076,9.578H41.418l-2.076-9.578H36.47l.268,1.6H35.193l-.07-.433a1.694,1.694,0,0,0,.844-1.53c0-1.695-1.255-1.691-1.486-2.4a1.9,1.9,0,0,1,.062-1.295c.536.161,1.005.33.9-.11a2.16,2.16,0,0,1,.51-1.61c.9.235,1.4.44,1.489.022,0-.011-1.218-3.984-.5-4.208.44-.143.935.759,1.684,1.662,1.383,1.654,2.04,2.414,2.645,2.707a2.205,2.205,0,0,0,2.406-.257,3.125,3.125,0,0,0,1.3.341,2.18,2.18,0,0,0,1.875-.932,2.191,2.191,0,0,0,1.016.128c.9-.088,2.285-.8,1.9-1.687,1.577-.426,1.031-3.012-2.2-4.083" transform="translate(7.894 2.394)" fill="#2b2e34"/>
    <path id="Tracciato_7418" data-name="Tracciato 7418" d="M42.285-13.738a10.224,10.224,0,0,0-3.767-.635c-2.579,0-4.219,2.007-4.219,5.147,0,3.21,1.559,5.315,4.325,5.315a8.961,8.961,0,0,0,2.432-.246V-8.73h-.924V-9.6h2.674v6.735a15.525,15.525,0,0,1-4.27.543c-4.021,0-6.218-2.85-6.218-6.871,0-4.266,2.553-6.79,6.2-6.79a11.579,11.579,0,0,1,4.266.715Z" transform="translate(78.333 12.474)" fill="#2b2e34"/>
    <path id="Tracciato_7419" data-name="Tracciato 7419" d="M53.663-6.885H58l-.789-2.524C56.84-10.535,56.3-12.494,56-13.645h-.055c-.356,1.152-.99,3.034-1.434,4.292ZM58.469-5.3H53.121L52.185-2.7H50.142l4.974-13.232H56.95L61.389-2.7H59.338L58.469-5.3" transform="translate(125.892 12.632)" fill="#2b2e34"/>
    <path id="Tracciato_7420" data-name="Tracciato 7420" d="M63.392-7.985c0,3.368-1.489,5.5-4.842,5.5s-4.8-2.135-4.8-5.5v-7.942h1.838v7.942c0,2.267.715,3.94,2.96,3.94s2.968-1.673,2.968-3.94v-7.942h1.875Z" transform="translate(135.523 12.632)" fill="#2b2e34"/>
    <path id="Tracciato_7421" data-name="Tracciato 7421" d="M66.292-14.28H62.58V-2.7H60.742V-14.28H57.077v-1.647h9.215Z" transform="translate(144.398 12.632)" fill="#2b2e34"/>
    <path id="Tracciato_7422" data-name="Tracciato 7422" d="M70.791-9.163c0-2.9-1.537-5.238-4.442-5.238s-4.431,2.34-4.431,5.238c0,2.876,1.511,5.22,4.395,5.22,2.913,0,4.479-2.344,4.479-5.22m1.944,0c0,3.965-2.439,6.838-6.423,6.838-3.9,0-6.332-2.931-6.332-6.838s2.491-6.823,6.394-6.823c3.921,0,6.361,2.909,6.361,6.823" transform="translate(152.144 12.474)" fill="#2b2e34"/>
    <path id="Tracciato_7423" data-name="Tracciato 7423" d="M64.27-15.927h2.472l4.886,8.6c.382.682.987,2.021,1.291,2.707h.088c-.062-.847-.11-2.9-.11-3.668v-7.641h1.834V-2.7H72.373L67.26-11.672c-.326-.58-.866-1.676-1.211-2.439h-.044c.081,1.119.11,2.927.11,3.852V-2.7H64.27Z" transform="translate(163.59 12.632)" fill="#2b2e34"/>
    <path id="Tracciato_7424" data-name="Tracciato 7424" d="M79.194-6.885h4.362l-.8-2.524c-.352-1.126-.9-3.085-1.2-4.237H81.5c-.392,1.152-1.023,3.034-1.46,4.292ZM84.029-5.3H78.64L77.708-2.7h-2l4.934-13.232h1.871L86.949-2.7H84.9L84.029-5.3" transform="translate(194.123 12.632)" fill="#2b2e34"/>
    <path id="Tracciato_7425" data-name="Tracciato 7425" d="M31.565-4.284h5.869V-2.7H29.719V-15.927h7.6v1.6H31.565v4.16h3.8v1.566h-3.8Z" transform="translate(71.398 12.632)" fill="#2b2e34"/>
    <path id="Tracciato_7426" data-name="Tracciato 7426" d="M36.154-2.7v-.965h.976V-14.969h-1v-.957h3.8v.957h-.965V-3.663h.994V-2.7Z" transform="translate(88.509 12.633)" fill="#2b2e34"/>
    <path id="Tracciato_7427" data-name="Tracciato 7427" d="M74.055-2.691l.216-9.042L78.307-4.21H79.1L83.3-11.671,83.552-2.7h1.915l-.455-13.228H83.655L78.908-6.939h-.1L74-15.927H72.657L72.169-3.66H71.19v.968Z" transform="translate(182.056 12.633)" fill="#2b2e34"/>
    <path id="Tracciato_7428" data-name="Tracciato 7428" d="M47.282-4.284h5.884V-2.7H45.448V-15.927h7.6v1.6H47.282v4.16H51.06v1.566H47.282Z" transform="translate(113.366 12.632)" fill="#2b2e34"/>
    <path id="Tracciato_7429" data-name="Tracciato 7429" d="M35.293-2.7H33.25l-2.2-5.15h1.922Zm-2.469-8.518c0-2.076-.708-3.147-2.77-3.147H28.224V-2.7H26.4V-15.927h3.657c3.162,0,4.7,1.537,4.7,4.71h-1.93" transform="translate(62.533 12.633)" fill="#2b2e34"/>
    <path id="Tracciato_7430" data-name="Tracciato 7430" d="M50.755-15.919v7.641c0,.77.055,2.821.114,3.668h-.088c-.3-.686-.921-2.025-1.31-2.707l-4.868-8.6-3.448-.011v1.042h.979v12.2h1.831v-7.56c0-.924-.015-2.733-.1-3.852h.044c.33.763.9,1.86,1.225,2.439l5.077,8.973h2.373V-15.919Z" transform="translate(101.911 12.624)" fill="#2b2e34"/>
    <path id="Tracciato_7431" data-name="Tracciato 7431" d="M75.98-10.856c0-2.018-1.053-3.646-3.067-3.646s-3.092,1.629-3.092,3.646,1.053,3.668,3.067,3.668,3.092-1.647,3.092-3.668m1.823,0a4.886,4.886,0,0,1-4.916,5.183,4.888,4.888,0,0,1-4.916-5.183,4.872,4.872,0,0,1,4.941-5.132,4.827,4.827,0,0,1,4.89,5.132" transform="translate(173.468 12.469)" fill="#2b2e34"/>
    <path id="Tracciato_7432" data-name="Tracciato 7432" d="M68.327-11.569H75.59V-12.6H68.327Z" transform="translate(174.416 21.51)" fill="#2b2e34"/>
    <path id="Tracciato_7433" data-name="Tracciato 7433" d="M45.908-10.851c0-2.025-1.06-3.65-3.067-3.65-2.029,0-3.111,1.625-3.111,3.65S40.783-7.182,42.8-7.182s3.1-1.647,3.1-3.668m1.808,0A4.881,4.881,0,0,1,42.8-5.667a4.867,4.867,0,0,1-4.894-5.183,4.848,4.848,0,0,1,4.93-5.139,4.82,4.82,0,0,1,4.875,5.139" transform="translate(93.255 12.464)" fill="#2b2e34"/>
    <path id="Tracciato_7434" data-name="Tracciato 7434" d="M38.257-11.574h7.278V-12.6H38.257Z" transform="translate(94.179 21.507)" fill="#2b2e34"/>
    <path id="Tracciato_7435" data-name="Tracciato 7435" d="M33.965-8.47H28.227v4.318H32.05V-2.56H28.227v5.7H26.4V-10.088h7.568Z" transform="translate(62.532 28.213)" fill="#2b2e34"/>
    <path id="Tracciato_7436" data-name="Tracciato 7436" d="M37.991,3.14H35.963l-2.19-5.15h1.919ZM35.552-5.378c0-2.054-.712-3.122-2.777-3.122h-1.8V3.14H29.136V-10.088h3.639c3.155,0,4.692,1.563,4.692,4.71H35.552" transform="translate(69.841 28.213)" fill="#2b2e34"/>
    <path id="Tracciato_7437" data-name="Tracciato 7437" d="M32.354,3.14V2.179h.954V-9.09h-.979v-1h3.793v1h-.983V2.179h1.012V3.14Z" transform="translate(78.361 28.213)" fill="#2b2e34"/>
    <path id="Tracciato_7438" data-name="Tracciato 7438" d="M39.451,3.14V2.179h.957V-9.09h-.987v-1h3.771v1h-.957V2.179h.994V3.14Z" transform="translate(97.286 28.213)" fill="#2b2e34"/>
    <path id="Tracciato_7439" data-name="Tracciato 7439" d="M38.731,1.46H44.3V3.14h-7.4V-10.088h1.823Z" transform="translate(90.579 28.213)" fill="#2b2e34"/>
    <path id="Tracciato_7440" data-name="Tracciato 7440" d="M76.69-7.9a10.024,10.024,0,0,0-3.745-.631c-2.619,0-4.233,2-4.233,5.11,0,3.2,1.541,5.275,4.332,5.275a9.008,9.008,0,0,0,2.4-.238V-2.929h-.9V-3.8H77.2V2.94a15.49,15.49,0,0,1-4.237.547c-4.035,0-6.225-2.876-6.225-6.874,0-4.233,2.542-6.794,6.2-6.794a11.537,11.537,0,0,1,4.233.712Z" transform="translate(170.186 27.962)" fill="#2b2e34"/>
    <path id="Tracciato_7441" data-name="Tracciato 7441" d="M70.539,3.111V2.153H71.5V-9.167h-.987v-.954h3.808v.954h-.954V2.153h.99v.957Z" transform="translate(180.251 28.125)" fill="#2b2e34"/>
    <path id="Tracciato_7442" data-name="Tracciato 7442" d="M82.081-2.176c0,3.335-1.442,5.5-4.813,5.5-3.345,0-4.794-2.164-4.794-5.5v-7.946h1.841v7.946c0,2.234.7,3.9,2.953,3.9,2.271,0,2.979-1.665,2.979-3.9v-7.946h1.834Z" transform="translate(185.479 28.124)" fill="#2b2e34"/>
    <path id="Tracciato_7443" data-name="Tracciato 7443" d="M82.368-1.083H86.73L85.945-3.6c-.363-1.126-.913-3.063-1.218-4.219h-.051c-.359,1.156-.983,3.012-1.434,4.27ZM87.192.484H81.832L80.9,3.114h-2l4.956-13.235h1.831L90.126,3.114H88.083L87.192.484" transform="translate(202.642 28.123)" fill="#2b2e34"/>
    <path id="Tracciato_7444" data-name="Tracciato 7444" d="M77.811,1.4h5.561V3.088H75.981v-13.21h1.831Z" transform="translate(194.839 28.122)" fill="#2b2e34"/>
    <path id="Tracciato_7445" data-name="Tracciato 7445" d="M78.065-.3h1.757v-9.824H78.065Z" transform="translate(200.401 28.122)" fill="#2b2e34"/>
    <path id="Tracciato_7446" data-name="Tracciato 7446" d="M38.3-6.747h2.15v.95h-6.24v-.95H38.3Z" transform="translate(83.386 37.127)" fill="#2b2e34"/>
    <path id="Tracciato_7447" data-name="Tracciato 7447" d="M41.538-3.966c0,2.4-1.343,3.936-3.749,3.936-2.428,0-3.749-1.537-3.749-3.936v-6.122h1.643v5.814c0,1.728.5,2.8,2.106,2.8,1.585,0,2.109-1.071,2.109-2.8v-5.814h1.64Z" transform="translate(82.926 28.212)" fill="#2b2e34"/>
    <path id="Tracciato_7448" data-name="Tracciato 7448" d="M46.883-9.051h7.274v-1.064H46.883Z" transform="translate(117.196 28.14)" fill="#2b2e34"/>
    <path id="Tracciato_7449" data-name="Tracciato 7449" d="M48.741-.736h4.266V.724H47.065V-9.224h5.855V-7.8H48.741v2.814h2.722v1.343H48.741Z" transform="translate(117.681 30.517)" fill="#2b2e34"/>
    <path id="Tracciato_7450" data-name="Tracciato 7450" d="M47.545-3.416c.359,1.156.9,3.067,1.2,4.211h.048c.356-1.145.983-2.92,1.442-4.266l2.278-6.647h2L49.644,3.106H47.787L43.393-10.118h2.069Z" transform="translate(107.883 28.132)" fill="#2b2e34"/>
    <path id="Tracciato_7451" data-name="Tracciato 7451" d="M56.86,1.481h5.825V3.106H55.03V-9.043h-2v-1.075h9.545V-8.5H56.86v4.138h3.778v1.555H56.86Z" transform="translate(133.6 28.132)" fill="#2b2e34"/>
    <path id="Tracciato_7452" data-name="Tracciato 7452" d="M52.891-10.118,57.755-1.5c.385.682.987,1.941,1.28,2.627h.084c-.062-.847-.139-2.839-.139-3.61v-7.637h1.831V3.106H58.463L53.408-5.845a26.793,26.793,0,0,1-1.266-2.406H52.08c.092,1.115.139,2.869.139,3.8V3.106H50.378V-9.044h-.972v-1.075h3.485Z" transform="translate(123.928 28.131)" fill="#2b2e34"/>
    <path id="Tracciato_7453" data-name="Tracciato 7453" d="M65.157-10.118l.279.73-5.2,8.36c-.5.763-1.145,1.75-1.7,2.509h6.658V3.106H56.522l-.312-.928L61.166-5.79c.433-.719,1.258-2,1.775-2.715H56.569v-1.614Z" transform="translate(142.083 28.131)" fill="#2b2e34"/>
    <path id="Tracciato_7454" data-name="Tracciato 7454" d="M59.39,3.106V2.149h.943V-9.16h-.972v-.957h3.771v.957h-.954V2.149h.976v.957Z" transform="translate(150.491 28.133)" fill="#2b2e34"/>
    <path id="Tracciato_7455" data-name="Tracciato 7455" d="M64.411-1.087h4.354l-.8-2.52c-.352-1.115-.906-3.056-1.192-4.211h-.059c-.356,1.156-.99,3-1.467,4.266ZM69.228.483H63.865L62.937,3.11H60.93l4.963-13.228h1.831L72.159,3.11H70.116L69.228.483" transform="translate(154.679 28.131)" fill="#2b2e34"/>
  </g>
</svg>
